<?xml version="1.0" encoding="utf-8"?>
<!-- Generator: Adobe Illustrator 19.0.0, SVG Export Plug-In . SVG Version: 6.00 Build 0)  -->
<svg version="1.1" id="Layer_1" xmlns="http://www.w3.org/2000/svg" xmlns:xlink="http://www.w3.org/1999/xlink" x="0px" y="0px"
	 width="1400px" height="980px" viewBox="0 0 1400 980" style="enable-background:new 0 0 1400 980;" xml:space="preserve">
<style type="text/css">
	.st0{fill-rule:evenodd;clip-rule:evenodd;fill:#F7FEFF;}
	.st1{fill-rule:evenodd;clip-rule:evenodd;fill:#F69F95;}
	.st2{fill-rule:evenodd;clip-rule:evenodd;fill:#7ACFD6;}
	.st3{fill-rule:evenodd;clip-rule:evenodd;fill:#60AFC0;}
	.st4{fill-rule:evenodd;clip-rule:evenodd;fill:#7ACFD6;stroke:#7ACFD6;stroke-width:0.216;stroke-miterlimit:2.6131;}
	.st5{fill-rule:evenodd;clip-rule:evenodd;fill:#FCD5AA;}
	.st6{fill-rule:evenodd;clip-rule:evenodd;fill:#FFFFFF;}
</style>
<g id="XMLID_1_">
	<rect id="XMLID_315_" y="0" class="st0" width="1400" height="980"/>
	<g id="XMLID_2_">
		<g id="XMLID_3_">
			<path id="XMLID_314_" class="st1" d="M9,0H0v15.4c1.3-0.9,2.8-1.9,4.3-3.2C8.1,9.1,9.1,4.7,9,0z"/>
			<path id="XMLID_313_" class="st1" d="M0,15.2C10.7,8.9,21.1,4.3,31.4,0H0V15.2z"/>
			<path id="XMLID_312_" class="st2" d="M74.5,0H0v24.2c2.9,2.5,6.3,4.6,9.3,6.6C32.9,45.9,68.8,32,74.5,0z"/>
		</g>
		<g id="XMLID_4_">
			<path id="XMLID_310_" class="st2" d="M383.4,39.8c2.7,6.9,5.2,12.2,9.7,18.1C404.3,72.3,419.6,81,434,73.6c2.6-1.3,5-5.9,3.6-9.4
				C426.4,36,409.3,25.1,396.1,7.5c-0.8-1.1-1.4-4.2-1.9-7.5h-3.7c0,3,0.1,6.2,0.2,8.6C380.8,14.6,379.5,29.5,383.4,39.8z"/>
			<path id="XMLID_309_" class="st3" d="M416.2,0h-16.9c4.5,1.9,8.6,3.2,9.8,2.7C413,1.1,415.1,0.8,416.2,0z"/>
			<path id="XMLID_308_" class="st2" d="M527.7,18.4c2.7,1.8,5.8,3.9,8.5,5.7c2.6,1.7,12.5-15.3,15.1-18.2c1.9-2.1,1.1-4.1-0.5-5.9
				h-37.7c-1.4,2.2-2.6,4.3-2.6,5.2c0,3.7,3.9,4.1,7.7,7C521.8,14.8,524.1,16,527.7,18.4z"/>
			<path id="XMLID_307_" class="st1" d="M447.8,65.7c6.2-5.2,5-13.7,3.4-21.5C448.7,31.6,431,6.1,415.5,0h-14
				c-6.2,2.1-12.1,6.4-12.1,12.5c0.1,17.1,18.1,51.3,34.7,56.4C430.3,70.8,435,76.4,447.8,65.7z"/>
			<path id="XMLID_306_" class="st2" d="M439.7,39.9c-3.3-11.6-10.7-21.2-21.8-26.5l-0.3,0.2C419.2,30.1,443.3,52.7,439.7,39.9z"/>
			<path id="XMLID_305_" class="st1" d="M440.4,70.6c23.8-14.6,46.1-20.8,68.6-31.7c0.4-0.2,5.3-2.3,5.2-2.4
				c-1-5.8-6.5-14.5-11.9-17.4c-23.2-12.6-65.2,4-68.1,27.3c-0.8,6.3-1.2,10.7-0.3,17.1C434.3,66.4,436,73.2,440.4,70.6z"/>
			<path id="XMLID_304_" class="st2" d="M518.7,47.1c0.2-4.3-4.3-13.4-8.3-14.6c-27.9-8.7-55.5,1.5-71,26
				c-7.9,12.4,4.4,20.1,13.4,25.8C477.9,100.4,517,83.5,518.7,47.1z"/>
			<path id="XMLID_303_" class="st2" d="M506.7,33.5c2.3-1.3,6.6-11.7,8.8-15.1c1.8-2.8,3.1-5,2.1-8.3c-1.4,1.9-12.2,15.8-12.8,17.4
				C504.1,29.5,497.7,38.7,506.7,33.5z"/>
			<path id="XMLID_302_" class="st2" d="M513.8,43.2c5.3-1.1,14.2-17.8,15-23.7c0.4-2.9,0.1-3.1-0.4-3c-2.2,0.2-14,17.7-16,20.7
				C510.3,40.2,506.8,44.6,513.8,43.2z"/>
			<path id="XMLID_301_" class="st2" d="M531.8,17.9c0.3,0.4,4.6,3.5,5.9,2c2.5-3.1,4.2-1.7,7-7.9c3-6.7,5.7-8.1,2.1-11.9h-18.1
				c-2.2,2.5-3,4.9-4.2,6.4C520.2,11.9,529.9,15.5,531.8,17.9z"/>
		</g>
		<g id="XMLID_5_">
			<path id="XMLID_300_" class="st2" d="M184.4,384.3c2.7,6.9,5.2,12.2,9.7,18.1c11.1,14.5,26.5,23.2,40.9,15.8
				c2.6-1.3,5-5.9,3.6-9.4c-11.2-28.3-28.3-39.2-41.5-56.8c-1.5-2-2.1-10.3-3.1-15c-0.7-3.1-2.2-4.7-2.4-2c-0.1,1-0.2,12.1,0.1,18.2
				C181.8,359.2,180.5,374.1,184.4,384.3z"/>
			<path id="XMLID_299_" class="st4" d="M338.9,337.9c5.1,1.9,4.1,4.2,6.9,0c29.8-45.4,17.7-109.9-41.1-125.5
				c-52-13.8-98.3,37.1-108,84.8c-1,4.8-1.7,10-1.7,15.2c-0.8-0.4,0.5,6.1,7.2,7.7c4,0.9,5.6,3.6,9.8,3.6c0.4,0,1.4-9.4,1.4-10.5
				c-0.2-4.2,1.1-5.8,1.3-8.2c0.3-3.7,6.1-15.3,8.3-18.5c11.5-16.8,32.9-42.9,60.2-47.6c38-6.5,57.5,9.2,59.7,36.9
				c1.6,19.7-1.1,38-9.8,55.5C331,335.1,335.9,336.8,338.9,337.9z"/>
			<path id="XMLID_298_" class="st2" d="M186.8,335.9c0.3,3.3,20.4,12.5,23.2,11.4c8.2-3.4,8.4-1.1,8.4-9.1c0-4.7-1.3-8.9-1.3-11.6
				c0-1.8-9.1-6.5-11.7-8.8c-1-0.9-6.5-4.8-6.5-4.9c-1.2-1.6-11.2,2.4-12.1,3.9C186.9,317,186.6,332.8,186.8,335.9z"/>
			<path id="XMLID_297_" class="st2" d="M328.7,362.9c2.7,1.8,5.8,3.9,8.5,5.7c2.6,1.7,12.5-15.3,15.1-18.2c2.1-2.3,0.9-4.4-0.8-6.2
				c-3.7-3.9-22.6-18-24.3-18c-2.3,0-7.3,9-8.4,11.1c-1.3,2.6-7.2,10.4-7.2,12.5c0,3.7,3.9,4.1,7.7,7
				C322.8,359.4,325.1,360.5,328.7,362.9z"/>
			<path id="XMLID_296_" class="st1" d="M225.1,413.4c6.2,1.9,10.9,7.5,23.7-3.2c6.2-5.2,5-13.7,3.4-21.5
				c-2.8-13.9-23.9-43.4-40.3-45.5c-7.6-0.9-21.5,4.4-21.5,13.7C190.6,374.2,208.5,408.4,225.1,413.4z"/>
			<path id="XMLID_295_" class="st2" d="M240.7,384.4c-3.3-11.6-10.7-21.2-21.8-26.5l-0.3,0.2C220.2,374.7,244.3,397.3,240.7,384.4z
				"/>
			<path id="XMLID_294_" class="st1" d="M241.4,415.1c23.8-14.6,46.1-20.8,68.6-31.7c0.4-0.2,5.3-2.3,5.2-2.4
				c-1-5.8-6.5-14.5-11.9-17.4c-23.2-12.6-65.2,4-68.1,27.3c-0.8,6.3-1.2,10.7-0.3,17.1C235.3,410.9,237.1,417.8,241.4,415.1z"/>
			<path id="XMLID_293_" class="st2" d="M319.7,391.6c0.2-4.3-4.3-13.4-8.3-14.6c-27.9-8.7-55.5,1.5-71,26
				c-7.9,12.4,4.4,20.1,13.4,25.8C278.9,444.9,318,428.1,319.7,391.6z"/>
			<path id="XMLID_292_" class="st2" d="M307.7,378c2.3-1.3,6.6-11.7,8.8-15.1c1.8-2.8,3.1-5,2.1-8.3c-1.4,1.9-12.2,15.8-12.8,17.4
				C305.1,374.1,298.7,383.2,307.7,378z"/>
			<path id="XMLID_291_" class="st2" d="M314.8,387.7c5.3-1.1,14.2-17.8,15-23.7c0.4-2.9,0.1-3.1-0.4-3c-2.2,0.2-14,17.7-16,20.7
				C311.3,384.8,307.8,389.1,314.8,387.7z"/>
			<path id="XMLID_290_" class="st2" d="M330,344.3c-2.4,2.6-3.2,5.1-4.4,6.6c-4.4,5.5,5.3,9.1,7.2,11.5c0.3,0.4,4.6,3.5,5.9,2
				c2.5-3.1,4.2-1.7,7-7.9c4.1-9.1,7.6-8.5-4.4-17.1c-0.3-0.2-7.6-6.3-6.3-4.4c0.2,0.2,0.9,1.6,0.8,1.8
				C333.9,339.3,332.4,341.8,330,344.3z"/>
		</g>
		<g id="XMLID_6_">
			<path id="XMLID_289_" class="st2" d="M36,762.7c2.6-1.3,5-5.9,3.6-9.4C29,726.4,12.9,715.2,0,698.9v53.6
				C10.5,763.5,23.6,769.1,36,762.7z"/>
			<path id="XMLID_288_" class="st5" d="M139.9,682.5c5.1,1.9,4.1,4.2,6.9,0c29.8-45.4,17.7-109.9-41.1-125.5
				C57,544.1,13.4,587.7,0,632.4v31c0.9,0.5,1.9,1,3.1,1.2c4,0.9,5.6,3.6,9.8,3.6c0.4,0,1.4-9.4,1.4-10.5c-0.2-4.2,1.1-5.8,1.3-8.2
				c0.3-3.7,6.1-15.3,8.3-18.5c11.5-16.8,32.9-42.9,60.3-47.6c38-6.5,57.5,9.2,59.7,36.9c1.6,19.7-1.1,38-9.8,55.5
				C132,679.7,136.9,681.3,139.9,682.5z"/>
			<path id="XMLID_287_" class="st2" d="M19.5,682.7c0-4.7-1.3-8.9-1.3-11.6c0-1.8-9.1-6.5-11.7-8.8c-0.9-0.8-5.7-4.3-6.4-4.8v31.1
				c4.9,2.2,9.8,3.8,11.1,3.3C19.3,688.4,19.5,690.7,19.5,682.7z"/>
			<path id="XMLID_286_" class="st2" d="M129.7,707.5c2.7,1.8,5.8,3.9,8.5,5.7c2.6,1.7,12.5-15.3,15.1-18.2c2.1-2.3,0.9-4.4-0.8-6.2
				c-3.7-3.9-22.6-18-24.3-18c-2.3,0-7.3,9-8.4,11.1c-1.3,2.6-7.2,10.4-7.2,12.5c0,3.7,3.9,4,7.7,7
				C123.9,703.9,126.1,705.1,129.7,707.5z"/>
			<path id="XMLID_285_" class="st1" d="M49.8,754.8c6.2-5.2,5-13.7,3.4-21.5c-2.8-13.9-23.9-43.4-40.3-45.5
				c-3.6-0.4-8.6,0.5-12.9,2.7v38.9c6.8,13.3,16.7,25.6,26.1,28.5C32.4,759.9,37,765.5,49.8,754.8z"/>
			<path id="XMLID_284_" class="st2" d="M41.7,729c-3.3-11.6-10.7-21.2-21.8-26.5l-0.3,0.2C21.2,719.2,45.3,741.8,41.7,729z"/>
			<path id="XMLID_283_" class="st1" d="M42.4,759.7c23.8-14.6,46.1-20.8,68.6-31.7c0.4-0.2,5.2-2.3,5.2-2.4
				c-1-5.8-6.5-14.5-11.9-17.4c-23.2-12.6-65.2,4-68.1,27.3c-0.8,6.3-1.2,10.7-0.3,17.1C36.3,755.5,38.1,762.3,42.4,759.7z"/>
			<path id="XMLID_282_" class="st2" d="M120.7,736.1c0.2-4.3-4.3-13.4-8.3-14.6c-27.9-8.7-55.5,1.5-71,26
				c-7.9,12.4,4.4,20.1,13.4,25.8C79.9,789.5,119,772.6,120.7,736.1z"/>
			<path id="XMLID_281_" class="st2" d="M108.7,722.6c2.3-1.3,6.6-11.7,8.8-15.1c1.8-2.8,3.1-5,2.1-8.3
				c-1.4,1.9-12.2,15.8-12.8,17.4C106.1,718.6,99.8,727.8,108.7,722.6z"/>
			<path id="XMLID_280_" class="st2" d="M115.9,732.3c5.3-1.1,14.2-17.8,15-23.7c0.4-2.9,0.1-3.1-0.4-3c-2.2,0.2-14,17.7-16,20.7
				C112.3,729.3,108.8,733.7,115.9,732.3z"/>
			<path id="XMLID_279_" class="st2" d="M131,688.9c-2.4,2.6-3.2,5.1-4.4,6.6c-4.4,5.5,5.3,9.1,7.2,11.5c0.3,0.4,4.6,3.5,5.9,2
				c2.5-3.1,4.2-1.7,7-7.9c4.1-9.1,7.6-8.5-4.4-17.1c-0.3-0.2-7.6-6.3-6.3-4.4c0.2,0.2,0.9,1.6,0.8,1.8
				C134.9,683.9,133.4,686.3,131,688.9z"/>
		</g>
		<g id="XMLID_7_">
			<path id="XMLID_278_" class="st2" d="M826.9,93.2c2.7,6.9,5.2,12.2,9.7,18.1c11.1,14.5,26.5,23.2,40.9,15.8
				c2.6-1.3,5-5.9,3.6-9.4c-11.2-28.3-28.3-39.2-41.5-56.8c-1.5-2-2.1-10.3-3.1-15c-0.7-3.1-2.2-4.7-2.4-2c-0.1,1-0.2,12.1,0.1,18.2
				C824.2,68.1,822.9,83,826.9,93.2z"/>
			<path id="XMLID_317_" class="st2" d="M862.6,0h-22.1c-0.6,2.1-1,4.1-1.5,6.2c-1,4.8-1.7,10-1.7,15.2c-0.8-0.4,0.5,6.1,7.2,7.7
				c4,0.9,5.6,3.6,9.8,3.6c0.4,0,1.4-9.4,1.4-10.5c-0.2-4.2,1.1-5.8,1.3-8.2C857.2,11.3,860.1,4.8,862.6,0z"/>
			<path id="XMLID_318_" class="st2" d="M988.2,46.8c9.4-14.4,14.7-30.7,15.5-46.8h-18.3c-0.6,14-3.7,27.3-10.1,40.2
				c-1.9,3.9,3,5.6,5.9,6.7C986.4,48.8,985.5,51.1,988.2,46.8z"/>
			<path id="XMLID_275_" class="st2" d="M829.3,44.8c0.3,3.3,20.4,12.5,23.2,11.4c8.2-3.4,8.4-1.1,8.4-9.1c0-4.7-1.3-8.9-1.3-11.6
				c0-1.8-9.1-6.5-11.7-8.8c-1-0.9-6.5-4.8-6.5-4.9c-1.2-1.6-11.2,2.4-12.1,3.9C829.3,26,829,41.8,829.3,44.8z"/>
			<path id="XMLID_274_" class="st2" d="M971.1,71.9c2.7,1.8,5.8,3.9,8.5,5.7c2.6,1.7,12.5-15.3,15.1-18.2c2.1-2.3,0.9-4.4-0.8-6.2
				c-3.7-3.9-22.6-18-24.3-18c-2.3,0-7.3,9-8.4,11.1c-1.3,2.6-7.2,10.4-7.2,12.5c0,3.7,3.9,4.1,7.7,7
				C965.3,68.3,967.5,69.5,971.1,71.9z"/>
			<path id="XMLID_273_" class="st1" d="M891.2,119.2c6.2-5.2,5-13.7,3.4-21.5c-2.8-13.9-23.9-43.4-40.3-45.5
				c-7.6-0.9-21.5,4.4-21.5,13.7c0.1,17.1,18.1,51.3,34.7,56.4C873.8,124.3,878.4,129.9,891.2,119.2z"/>
			<path id="XMLID_272_" class="st2" d="M883.1,93.4c-3.3-11.6-10.7-21.2-21.8-26.5l-0.3,0.2C862.6,83.6,886.8,106.2,883.1,93.4z"/>
			<path id="XMLID_271_" class="st1" d="M883.8,124.1c23.8-14.6,46.2-20.8,68.6-31.7c0.4-0.2,5.3-2.3,5.2-2.4
				c-1-5.8-6.5-14.5-11.9-17.4c-23.2-12.6-65.2,4-68.1,27.3c-0.8,6.3-1.2,10.7-0.3,17.1C877.7,119.9,879.5,126.7,883.8,124.1z"/>
			<path id="XMLID_270_" class="st2" d="M962.1,100.5c0.2-4.3-4.3-13.4-8.3-14.6c-27.9-8.7-55.5,1.5-71,26
				c-7.9,12.4,4.4,20.1,13.4,25.8C921.3,153.9,960.4,137,962.1,100.5z"/>
			<path id="XMLID_269_" class="st2" d="M950.1,87c2.3-1.4,6.6-11.7,8.8-15.1c1.8-2.8,3.1-5,2.1-8.3c-1.4,1.9-12.2,15.8-12.8,17.4
				C947.5,83,941.2,92.2,950.1,87z"/>
			<path id="XMLID_268_" class="st2" d="M957.3,96.7c5.3-1.1,14.2-17.8,15-23.7c0.3-2.9,0.1-3.1-0.4-3c-2.2,0.2-14,17.7-16,20.7
				C953.7,93.7,950.2,98.1,957.3,96.7z"/>
			<path id="XMLID_267_" class="st2" d="M972.4,53.3c-2.4,2.6-3.2,5.1-4.4,6.6c-4.4,5.5,5.3,9.1,7.2,11.5c0.3,0.4,4.6,3.5,5.9,2
				c2.5-3.1,4.2-1.7,7-7.9c4.1-9.1,7.6-8.5-4.4-17.1c-0.3-0.2-7.6-6.3-6.3-4.4c0.2,0.2,0.9,1.6,0.8,1.8
				C976.3,48.3,974.8,50.7,972.4,53.3z"/>
		</g>
		<g id="XMLID_8_">
			<path id="XMLID_266_" class="st2" d="M627.9,437.8c2.7,6.9,5.2,12.2,9.7,18.1c11.1,14.5,26.5,23.2,40.9,15.8
				c2.6-1.3,5-5.9,3.6-9.4c-11.2-28.3-28.3-39.2-41.5-56.8c-1.5-2-2.1-10.3-3.1-15c-0.7-3.1-2.2-4.7-2.4-2c-0.1,1-0.2,12.1,0.1,18.2
				C625.2,412.7,623.9,427.5,627.9,437.8z"/>
			<path id="XMLID_265_" class="st5" d="M782.3,391.4c5.1,1.9,4.1,4.2,6.9,0c29.8-45.4,17.7-109.9-41.1-125.5
				c-52-13.8-98.3,37.1-108,84.8c-1,4.8-1.7,10-1.7,15.2c-0.8-0.4,0.5,6.1,7.2,7.7c4,0.9,5.6,3.6,9.8,3.6c0.4,0,1.4-9.4,1.4-10.5
				c-0.2-4.2,1.1-5.8,1.3-8.2c0.3-3.7,6.1-15.3,8.3-18.5c11.5-16.8,32.9-42.9,60.3-47.6c38-6.5,57.5,9.2,59.7,36.9
				c1.6,19.7-1.1,38-9.8,55.5C774.5,388.6,779.4,390.3,782.3,391.4z"/>
			<path id="XMLID_264_" class="st2" d="M630.3,389.4c0.3,3.3,20.4,12.5,23.2,11.4c8.2-3.4,8.4-1.1,8.4-9.1c0-4.7-1.3-8.9-1.3-11.6
				c0-1.8-9.1-6.5-11.7-8.8c-1-0.9-6.5-4.8-6.5-4.9c-1.2-1.6-11.2,2.4-12.1,3.9C630.3,370.5,630,386.3,630.3,389.4z"/>
			<path id="XMLID_263_" class="st2" d="M772.1,416.4c2.7,1.8,5.8,3.9,8.5,5.7c2.6,1.7,12.5-15.3,15.1-18.2c2.1-2.3,0.9-4.4-0.8-6.2
				c-3.7-3.9-22.6-18-24.3-18c-2.3,0-7.3,9-8.4,11.1c-1.3,2.6-7.2,10.4-7.2,12.5c0,3.7,3.9,4,7.7,7
				C766.3,412.9,768.5,414,772.1,416.4z"/>
			<path id="XMLID_262_" class="st1" d="M692.2,463.8c6.2-5.2,5-13.7,3.4-21.5c-2.8-13.9-23.9-43.4-40.3-45.5
				c-7.6-0.9-21.5,4.4-21.5,13.7c0.1,17.1,18.1,51.3,34.7,56.4C674.8,468.8,679.4,474.4,692.2,463.8z"/>
			<path id="XMLID_261_" class="st2" d="M684.1,437.9c-3.3-11.6-10.7-21.2-21.8-26.5l-0.3,0.2C663.6,428.2,687.8,450.7,684.1,437.9z
				"/>
			<path id="XMLID_260_" class="st1" d="M684.8,468.6c23.8-14.6,46.1-20.8,68.6-31.7c0.4-0.2,5.2-2.3,5.2-2.4
				c-1-5.8-6.5-14.5-11.9-17.4c-23.2-12.6-65.2,4-68.1,27.3c-0.8,6.3-1.2,10.7-0.3,17.1C678.8,464.4,680.5,471.3,684.8,468.6z"/>
			<path id="XMLID_259_" class="st2" d="M763.1,445.1c0.2-4.3-4.3-13.4-8.3-14.6c-27.9-8.7-55.5,1.5-71,26
				c-7.9,12.4,4.4,20.1,13.4,25.8C722.4,498.4,761.4,481.6,763.1,445.1z"/>
			<path id="XMLID_258_" class="st2" d="M751.1,431.5c2.3-1.4,6.6-11.7,8.8-15.1c1.8-2.8,3.1-5,2.1-8.3
				c-1.4,1.9-12.2,15.8-12.8,17.4C748.5,427.6,742.2,436.7,751.1,431.5z"/>
			<path id="XMLID_257_" class="st2" d="M758.3,441.2c5.3-1.1,14.2-17.8,15-23.7c0.4-2.9,0.1-3.1-0.4-3c-2.2,0.2-14,17.7-16,20.7
				C754.7,438.3,751.2,442.6,758.3,441.2z"/>
			<path id="XMLID_256_" class="st2" d="M773.4,397.8c-2.4,2.6-3.2,5.1-4.4,6.6c-4.4,5.5,5.3,9.1,7.2,11.5c0.3,0.4,4.6,3.5,5.9,2
				c2.5-3.1,4.2-1.7,7-7.9c4.1-9.1,7.6-8.5-4.4-17.1c-0.3-0.2-7.6-6.3-6.3-4.4c0.2,0.2,0.9,1.6,0.8,1.8
				C777.3,392.8,775.8,395.3,773.4,397.8z"/>
		</g>
		<g id="XMLID_9_">
			<path id="XMLID_255_" class="st2" d="M428.9,782.3c2.7,6.9,5.2,12.2,9.7,18.1c11.1,14.5,26.5,23.2,40.9,15.8
				c2.6-1.3,5-5.9,3.6-9.4c-11.2-28.3-28.3-39.2-41.5-56.8c-1.5-2-2.1-10.3-3.1-15c-0.7-3.1-2.2-4.7-2.4-2c-0.1,1-0.2,12.1,0.1,18.2
				C426.2,757.2,424.9,772.1,428.9,782.3z"/>
			<path id="XMLID_254_" class="st2" d="M583.4,736c5.1,1.9,4.1,4.2,6.9,0c29.8-45.4,17.7-109.9-41.1-125.5
				c-52-13.8-98.3,37.1-108,84.8c-1,4.8-1.7,10-1.7,15.2c-0.8-0.4,0.5,6.1,7.2,7.7c4,0.9,5.6,3.6,9.8,3.6c0.4,0,1.4-9.4,1.4-10.5
				c-0.2-4.2,1.1-5.8,1.3-8.2c0.3-3.7,6.1-15.3,8.3-18.5c11.5-16.8,32.9-42.9,60.3-47.6c38-6.5,57.5,9.2,59.7,36.9
				c1.6,19.7-1.1,38-9.8,55.5C575.5,733.2,580.4,734.8,583.4,736z"/>
			<path id="XMLID_253_" class="st2" d="M431.3,733.9c0.3,3.3,20.4,12.5,23.2,11.4c8.2-3.4,8.4-1.1,8.4-9.1c0-4.7-1.3-8.9-1.3-11.6
				c0-1.8-9.1-6.5-11.7-8.8c-1-0.9-6.5-4.8-6.5-4.9c-1.2-1.6-11.2,2.4-12.1,3.9C431.3,715.1,431,730.9,431.3,733.9z"/>
			<path id="XMLID_252_" class="st2" d="M573.1,761c2.7,1.8,5.8,3.9,8.5,5.7c2.6,1.7,12.5-15.3,15.1-18.2c2.1-2.3,0.9-4.4-0.8-6.2
				c-3.7-3.9-22.6-18-24.3-18c-2.3,0-7.3,9-8.4,11.1c-1.3,2.6-7.2,10.4-7.2,12.5c0,3.7,3.9,4.1,7.7,7
				C567.3,757.4,569.5,758.5,573.1,761z"/>
			<path id="XMLID_251_" class="st1" d="M493.2,808.3c6.2-5.2,5-13.7,3.4-21.5c-2.8-13.9-23.9-43.4-40.3-45.5
				c-7.6-0.9-21.5,4.4-21.5,13.7c0.1,17.1,18.1,51.3,34.7,56.4C475.8,813.4,480.4,819,493.2,808.3z"/>
			<path id="XMLID_250_" class="st2" d="M485.1,782.5c-3.3-11.6-10.7-21.2-21.8-26.5l-0.3,0.2C464.6,772.7,488.8,795.3,485.1,782.5z
				"/>
			<path id="XMLID_249_" class="st1" d="M485.8,813.2c23.8-14.6,46.2-20.8,68.6-31.7c0.4-0.2,5.3-2.3,5.2-2.4
				c-1-5.8-6.5-14.5-11.9-17.4c-23.2-12.6-65.2,4-68.1,27.3c-0.8,6.4-1.2,10.7-0.3,17.1C479.8,809,481.5,815.8,485.8,813.2z"/>
			<path id="XMLID_248_" class="st2" d="M564.1,789.6c0.2-4.3-4.3-13.4-8.3-14.6c-27.9-8.7-55.5,1.5-71,26
				c-7.9,12.4,4.4,20.1,13.4,25.8C523.4,843,562.4,826.1,564.1,789.6z"/>
			<path id="XMLID_247_" class="st2" d="M552.1,776.1c2.3-1.4,6.6-11.7,8.8-15.1c1.8-2.8,3.1-5,2.1-8.3
				c-1.4,1.9-12.2,15.8-12.8,17.4C549.5,772.1,543.2,781.2,552.1,776.1z"/>
			<path id="XMLID_246_" class="st2" d="M559.3,785.7c5.3-1.1,14.2-17.8,15-23.7c0.4-2.9,0.1-3.1-0.4-3c-2.2,0.2-14,17.7-16,20.7
				C555.7,782.8,552.2,787.2,559.3,785.7z"/>
			<path id="XMLID_245_" class="st2" d="M574.4,742.3c-2.4,2.6-3.2,5.1-4.4,6.6c-4.4,5.5,5.3,9.1,7.2,11.5c0.3,0.4,4.6,3.5,5.9,2
				c2.5-3.1,4.2-1.7,7-7.9c4.1-9.1,7.6-8.5-4.4-17.1c-0.3-0.2-7.6-6.3-6.3-4.4c0.2,0.2,0.9,1.6,0.8,1.8
				C578.3,737.4,576.8,739.8,574.4,742.3z"/>
		</g>
		<path id="XMLID_244_" class="st5" d="M347.5,980h42.8c-9.4-11.5-22.7-20.4-40.2-25c-28.8-7.6-55.8,4.5-75.8,25h67.3
			C343.6,979.9,345.6,979.9,347.5,980z"/>
		<g id="XMLID_10_">
			<path id="XMLID_243_" class="st2" d="M1270.3,146.7c2.7,6.9,5.2,12.2,9.7,18.1c11.1,14.5,26.5,23.2,40.9,15.8
				c2.6-1.3,5-5.9,3.6-9.4c-11.2-28.3-28.3-39.2-41.5-56.8c-1.5-2-2.1-10.3-3.1-15c-0.7-3.1-2.2-4.7-2.4-2c0,1-0.2,12.1,0.2,18.2
				C1267.6,121.6,1266.4,136.5,1270.3,146.7z"/>
			<path id="XMLID_277_" class="st5" d="M1308.7,48.8c11.5-16.8,32.9-42.9,60.3-47.6c3.6-0.6,7.1-1,10.3-1.3h-64.7
				c-16.1,16.5-27.7,38.4-32.1,59.7c-1,4.8-1.7,10-1.7,15.2c-0.8-0.4,0.5,6.1,7.2,7.7c4,0.9,5.6,3.6,9.8,3.6c0.4,0,1.4-9.4,1.4-10.5
				c-0.2-4.2,1.1-5.8,1.3-8.2C1300.7,63.7,1306.5,52.1,1308.7,48.8z"/>
			<path id="XMLID_316_" class="st5" d="M1390.4,0c3.4,0.3,6.6,0.8,9.6,1.6V0H1390.4z"/>
			<path id="XMLID_240_" class="st2" d="M1272.7,98.3c0.3,3.3,20.4,12.5,23.2,11.4c8.2-3.4,8.4-1.1,8.4-9.1c0-4.7-1.3-8.9-1.3-11.6
				c0-1.8-9.1-6.5-11.7-8.9c-1-0.9-6.5-4.8-6.5-4.9c-1.2-1.6-11.2,2.4-12.1,3.9C1272.8,79.5,1272.5,95.3,1272.7,98.3z"/>
			<path id="XMLID_239_" class="st2" d="M1400,107c-1.4,2.2-2.5,4.2-2.5,5.1c0,1.9,1,2.9,2.5,3.8V107z"/>
			<path id="XMLID_238_" class="st1" d="M1334.7,172.7c6.2-5.2,5-13.7,3.4-21.5c-2.8-13.9-23.9-43.4-40.3-45.5
				c-7.6-0.9-21.5,4.4-21.5,13.7c0.1,17.1,18.1,51.3,34.7,56.4C1317.2,177.8,1321.9,183.4,1334.7,172.7z"/>
			<path id="XMLID_237_" class="st2" d="M1326.5,146.9c-3.3-11.6-10.7-21.2-21.8-26.5l-0.3,0.2
				C1306.1,137.1,1330.2,159.7,1326.5,146.9z"/>
			<path id="XMLID_236_" class="st1" d="M1327.2,177.6c23.8-14.6,46.1-20.8,68.6-31.7c0.3-0.1,2.7-1.2,4.2-1.9v-4.1
				c-2.1-5.3-6.5-11.5-10.8-13.8c-23.2-12.6-65.2,4-68.1,27.3c-0.8,6.3-1.2,10.7-0.3,17.1C1321.2,173.4,1322.9,180.2,1327.2,177.6z"
				/>
			<path id="XMLID_235_" class="st2" d="M1400,174.3v-33c-0.9-0.9-1.8-1.6-2.7-1.9c-27.9-8.7-55.5,1.5-71,26
				c-7.9,12.4,4.4,20.1,13.4,25.8C1359.5,204,1388,196.1,1400,174.3z"/>
			<path id="XMLID_234_" class="st2" d="M1393.5,140.5c1.6-1,4.3-6.4,6.5-10.8V123c-3.6,4.7-7.9,10.5-8.3,11.5
				C1391,136.5,1384.6,145.6,1393.5,140.5z"/>
			<path id="XMLID_233_" class="st2" d="M1400,150.3V143l-0.8,1.1C1397.2,147.1,1393.9,151.2,1400,150.3z"/>
		</g>
		<g id="XMLID_11_">
			<path id="XMLID_232_" class="st2" d="M1071.3,491.3c2.7,6.9,5.2,12.2,9.7,18.1c11.1,14.5,26.5,23.2,40.9,15.8
				c2.6-1.3,5-5.9,3.6-9.4c-11.2-28.3-28.3-39.2-41.5-56.8c-1.5-2-2.1-10.3-3.1-15c-0.7-3.1-2.2-4.7-2.4-2c-0.1,1-0.2,12.1,0.1,18.2
				C1068.7,466.2,1067.4,481,1071.3,491.3z"/>
			<path id="XMLID_231_" class="st2" d="M1225.8,444.9c5.1,1.9,4.1,4.2,6.9,0c29.8-45.4,17.7-109.9-41.1-125.5
				c-52-13.8-98.3,37.1-108,84.8c-1,4.8-1.7,10-1.7,15.2c-0.8-0.4,0.5,6.1,7.2,7.7c4,0.9,5.6,3.6,9.8,3.6c0.4,0,1.4-9.4,1.4-10.5
				c-0.2-4.2,1.1-5.8,1.3-8.2c0.3-3.7,6.1-15.3,8.3-18.5c11.5-16.8,32.9-42.9,60.3-47.6c38-6.5,57.5,9.2,59.7,36.9
				c1.6,19.7-1.1,38-9.8,55.5C1217.9,442.1,1222.8,443.8,1225.8,444.9z"/>
			<path id="XMLID_230_" class="st2" d="M1073.7,442.9c0.3,3.3,20.4,12.5,23.2,11.4c8.2-3.4,8.4-1.1,8.4-9.1c0-4.7-1.3-8.9-1.3-11.6
				c0-1.8-9.1-6.5-11.7-8.8c-1-0.9-6.5-4.8-6.5-4.9c-1.2-1.6-11.2,2.4-12.1,3.9C1073.8,424,1073.5,439.8,1073.7,442.9z"/>
			<path id="XMLID_229_" class="st2" d="M1215.6,469.9c2.7,1.8,5.8,3.9,8.5,5.7c2.6,1.7,12.5-15.3,15.1-18.2
				c2.1-2.3,0.9-4.4-0.8-6.2c-3.7-3.9-22.6-18-24.3-18c-2.3,0-7.3,9-8.4,11.1c-1.3,2.6-7.2,10.4-7.2,12.5c0,3.7,3.9,4.1,7.7,7
				C1209.7,466.4,1211.9,467.5,1215.6,469.9z"/>
			<path id="XMLID_228_" class="st1" d="M1135.7,517.2c6.2-5.2,5-13.7,3.4-21.5c-2.8-13.9-23.9-43.4-40.3-45.5
				c-7.6-0.9-21.5,4.4-21.5,13.7c0.1,17.1,18.1,51.3,34.7,56.4C1118.2,522.3,1122.9,527.9,1135.7,517.2z"/>
			<path id="XMLID_227_" class="st2" d="M1127.6,491.4c-3.3-11.6-10.7-21.2-21.8-26.5l-0.3,0.2
				C1107.1,481.7,1131.2,504.2,1127.6,491.4z"/>
			<path id="XMLID_226_" class="st1" d="M1128.3,522.1c23.8-14.6,46.2-20.8,68.6-31.7c0.4-0.2,5.2-2.3,5.2-2.4
				c-1-5.8-6.5-14.5-11.9-17.4c-23.2-12.6-65.2,4-68.1,27.3c-0.8,6.4-1.2,10.7-0.3,17.1C1122.2,517.9,1123.9,524.7,1128.3,522.1z"/>
			<path id="XMLID_225_" class="st2" d="M1206.6,498.6c0.2-4.3-4.3-13.4-8.3-14.6c-27.9-8.7-55.5,1.5-71,26
				c-7.9,12.4,4.4,20.1,13.4,25.8C1165.8,551.9,1204.9,535.1,1206.6,498.6z"/>
			<path id="XMLID_224_" class="st2" d="M1194.5,485c2.3-1.4,6.6-11.7,8.8-15.1c1.8-2.8,3.1-5,2.1-8.3c-1.4,1.9-12.2,15.8-12.8,17.4
				C1192,481.1,1185.6,490.2,1194.5,485z"/>
			<path id="XMLID_223_" class="st2" d="M1201.7,494.7c5.3-1.1,14.2-17.8,15-23.7c0.4-2.9,0.1-3.1-0.4-3c-2.2,0.2-14,17.7-16,20.7
				C1198.2,491.8,1194.7,496.1,1201.7,494.7z"/>
			<path id="XMLID_222_" class="st2" d="M1216.9,451.3c-2.4,2.6-3.2,5.1-4.4,6.6c-4.4,5.5,5.3,9.1,7.2,11.5c0.3,0.4,4.6,3.5,5.9,2
				c2.5-3.1,4.2-1.7,7-7.9c4.1-9.1,7.6-8.5-4.4-17.1c-0.3-0.2-7.6-6.3-6.3-4.4c0.2,0.2,0.9,1.6,0.8,1.8
				C1220.7,446.3,1219.3,448.8,1216.9,451.3z"/>
		</g>
		<g id="XMLID_12_">
			<path id="XMLID_221_" class="st2" d="M872.3,835.8c2.7,6.9,5.2,12.2,9.7,18.1c11.1,14.5,26.5,23.2,40.9,15.8
				c2.6-1.3,5-5.9,3.6-9.4c-11.2-28.3-28.3-39.2-41.5-56.8c-1.5-2-2.1-10.3-3.1-15c-0.7-3.1-2.2-4.7-2.4-2c-0.1,1-0.2,12.1,0.1,18.2
				C869.7,810.7,868.4,825.6,872.3,835.8z"/>
			<path id="XMLID_220_" class="st5" d="M1026.8,789.4c5.1,1.9,4.1,4.2,6.9,0c29.8-45.4,17.7-109.9-41.1-125.5
				c-52-13.8-98.3,37.1-108,84.8c-1,4.8-1.7,10-1.7,15.2c-0.8-0.4,0.5,6.1,7.2,7.7c4,0.9,5.6,3.6,9.8,3.6c0.4,0,1.4-9.4,1.4-10.5
				c-0.2-4.2,1.1-5.8,1.3-8.2c0.3-3.7,6.1-15.3,8.3-18.5c11.5-16.8,32.9-42.9,60.3-47.6c38-6.5,57.5,9.2,59.7,36.9
				c1.6,19.7-1.1,38-9.8,55.5C1018.9,786.7,1023.8,788.3,1026.8,789.4z"/>
			<path id="XMLID_219_" class="st2" d="M874.7,787.4c0.3,3.3,20.4,12.5,23.2,11.4c8.2-3.4,8.4-1.1,8.4-9.1c0-4.7-1.3-8.9-1.3-11.6
				c0-1.8-9.1-6.5-11.7-8.8c-1-0.9-6.5-4.8-6.5-4.9c-1.2-1.6-11.2,2.4-12.1,3.9C874.8,768.6,874.5,784.4,874.7,787.4z"/>
			<path id="XMLID_218_" class="st2" d="M1016.6,814.5c2.7,1.8,5.8,3.9,8.5,5.7c2.6,1.7,12.5-15.3,15.1-18.2
				c2.1-2.3,0.9-4.4-0.8-6.2c-3.7-3.9-22.6-18-24.3-18c-2.3,0-7.3,9-8.4,11.1c-1.3,2.6-7.2,10.4-7.2,12.5c0,3.7,3.9,4.1,7.7,7
				C1010.7,810.9,1013,812,1016.6,814.5z"/>
			<path id="XMLID_217_" class="st1" d="M913,865c6.2,1.9,10.9,7.5,23.7-3.2c6.2-5.2,5-13.7,3.4-21.5c-2.8-13.9-23.9-43.4-40.3-45.5
				c-7.6-0.9-21.5,4.4-21.5,13.7C878.5,825.7,896.4,859.9,913,865z"/>
			<path id="XMLID_216_" class="st2" d="M928.6,835.9c-3.3-11.6-10.7-21.2-21.8-26.5l-0.3,0.2C908.1,826.2,932.2,848.8,928.6,835.9z
				"/>
			<path id="XMLID_215_" class="st1" d="M929.3,866.6c23.8-14.6,46.2-20.8,68.6-31.7c0.4-0.2,5.2-2.3,5.2-2.4
				c-1-5.8-6.5-14.5-11.9-17.4c-23.2-12.6-65.2,4-68.1,27.3c-0.8,6.4-1.2,10.7-0.3,17.1C923.2,862.5,925,869.3,929.3,866.6z"/>
			<path id="XMLID_214_" class="st2" d="M1007.6,843.1c0.2-4.3-4.3-13.4-8.3-14.6c-27.9-8.7-55.5,1.5-71,26
				c-7.9,12.4,4.4,20.1,13.4,25.8C966.8,896.5,1005.9,879.6,1007.6,843.1z"/>
			<path id="XMLID_213_" class="st2" d="M995.6,829.6c2.3-1.4,6.6-11.7,8.8-15.1c1.8-2.8,3.1-5,2.1-8.3
				c-1.4,1.9-12.2,15.8-12.8,17.4C993,825.6,986.6,834.7,995.6,829.6z"/>
			<path id="XMLID_212_" class="st2" d="M1002.7,839.2c5.3-1.1,14.2-17.8,15-23.7c0.4-2.9,0.1-3.1-0.4-3c-2.2,0.2-14,17.7-16,20.7
				C999.2,836.3,995.7,840.6,1002.7,839.2z"/>
			<path id="XMLID_211_" class="st2" d="M1017.9,795.8c-2.4,2.6-3.2,5.1-4.4,6.6c-4.4,5.5,5.3,9.1,7.2,11.5c0.3,0.4,4.6,3.5,5.9,2
				c2.5-3.1,4.2-1.7,7-7.9c4.1-9.1,7.6-8.5-4.4-17.1c-0.3-0.2-7.6-6.3-6.3-4.4c0.2,0.2,0.9,1.6,0.8,1.8
				C1021.8,790.9,1020.3,793.3,1017.9,795.8z"/>
		</g>
		<g id="XMLID_13_">
			<path id="XMLID_210_" class="st2" d="M1315.8,889.3c2.7,6.9,5.2,12.2,9.7,18.1c11.1,14.5,26.5,23.2,40.9,15.8
				c2.6-1.3,5-5.9,3.6-9.4c-11.2-28.3-28.3-39.2-41.5-56.8c-1.5-2-2.1-10.3-3.1-15c-0.7-3.1-2.2-4.7-2.4-2c0,1-0.2,12.1,0.2,18.2
				C1313.1,864.2,1311.8,879.1,1315.8,889.3z"/>
			<path id="XMLID_209_" class="st2" d="M1354.2,791.4c9.4-13.7,25.4-33.6,45.8-43v-30.6c-36.1,10.1-64.6,48.2-72,84.5
				c-1,4.8-1.7,10-1.7,15.2c-0.8-0.4,0.5,6.1,7.2,7.7c4,0.9,5.6,3.6,9.8,3.6c0.4,0,1.4-9.4,1.4-10.5c-0.2-4.2,1.1-5.8,1.3-8.2
				C1346.2,806.2,1351.9,794.6,1354.2,791.4z"/>
			<path id="XMLID_208_" class="st2" d="M1318.2,840.9c0.3,3.3,20.4,12.5,23.2,11.4c8.2-3.4,8.4-1.1,8.4-9.1c0-4.7-1.3-8.9-1.3-11.6
				c0-1.8-9.1-6.5-11.7-8.8c-1-0.9-6.5-4.8-6.5-4.9c-1.2-1.6-11.2,2.4-12.1,3.9C1318.2,822.1,1317.9,837.9,1318.2,840.9z"/>
			<path id="XMLID_207_" class="st1" d="M1380.1,915.3c6.2-5.2,5-13.7,3.4-21.5c-2.8-13.9-23.9-43.4-40.3-45.5
				c-7.6-0.9-21.5,4.4-21.5,13.7c0.1,17.1,18.1,51.3,34.7,56.4C1362.7,920.4,1367.3,926,1380.1,915.3z"/>
			<path id="XMLID_206_" class="st2" d="M1372,889.4c-3.3-11.6-10.7-21.2-21.8-26.5l-0.3,0.2C1351.5,879.7,1375.7,902.3,1372,889.4z
				"/>
			<path id="XMLID_205_" class="st1" d="M1372.7,920.1c9.3-5.7,18.4-10.1,27.3-14v-39.6c-16.8,4.6-31.8,15.9-33.4,29.4
				c-0.8,6.4-1.2,10.7-0.3,17.1C1366.6,916,1368.4,922.8,1372.7,920.1z"/>
			<path id="XMLID_204_" class="st2" d="M1400,939.4v-55.9c-11.3,4.7-21.1,13-28.3,24.4c-7.9,12.4,4.4,20.1,13.4,25.8
				C1389.7,936.8,1394.8,938.6,1400,939.4z"/>
		</g>
		<path id="XMLID_203_" class="st5" d="M188.4,0H178c-2.7,4.9-4.5,9.7-4.5,13.5C173.5,15.7,181,8,188.4,0z"/>
		<path id="XMLID_202_" class="st1" d="M0,332.9c1.7-1.9,3-3.3,3.4-3.8c57.8-57.8,6.3-21.1,11.7-36.6c3.4-9.9,21.1-17.3,21.1-29.8
			c0-4.3-22,0.4-36.2,5.8v10c0.2,0,0.3,0,0.5,0c0.5,0,0.3,0.9-0.5,2.3V332.9z"/>
		<path id="XMLID_201_" class="st1" d="M645.9,38c57.8-57.8,6.4-21.1,11.7-36.5c0.2-0.5,0.4-1,0.6-1.5h-22.1
			c-4.1,6.4-8.3,13.4-8.3,16.7c0,2.9,10.3,1.1,12.6,2.6c5.4,3.6-23.4,32.4-23.4,47.7C616.9,71.1,643.3,40.6,645.9,38z"/>
		<path id="XMLID_200_" class="st5" d="M446.9,382.6c57.8-57.8,6.3-21.1,11.7-36.5c3.4-9.9,21.1-17.3,21.1-29.8
			c0-8.1-77.4,15.8-35.7,15.8c2.7,0-15.2,22.5-15.2,29.2c0,2.9,10.3,1.1,12.6,2.6c5.4,3.6-23.4,32.5-23.4,47.7
			C417.9,415.6,444.3,385.1,446.9,382.6z"/>
		<path id="XMLID_199_" class="st1" d="M247.9,727.1c57.8-57.8,6.4-21.1,11.7-36.6c3.4-9.9,21.1-17.3,21.1-29.8
			c0-8.1-77.4,15.8-35.7,15.8c2.7,0-15.2,22.5-15.2,29.2c0,2.9,10.3,1.1,12.6,2.6c5.4,3.6-23.4,32.4-23.4,47.7
			C218.9,760.2,245.4,729.7,247.9,727.1z"/>
		<path id="XMLID_198_" class="st5" d="M1089.3,91.5c57.8-57.8,6.4-21.1,11.7-36.5c3.4-9.9,21.1-17.3,21.1-29.8
			c0-8.1-77.4,15.8-35.7,15.8c2.7,0-15.2,22.5-15.2,29.2c0,2.9,10.3,1.1,12.6,2.6c5.4,3.6-23.4,32.5-23.4,47.7
			C1060.4,124.6,1086.8,94.1,1089.3,91.5z"/>
		<path id="XMLID_197_" class="st1" d="M890.3,436.1c57.8-57.8,6.4-21.1,11.7-36.6c3.4-9.9,21.1-17.3,21.1-29.8
			c0-8.1-77.4,15.8-35.7,15.8c2.7,0-15.2,22.5-15.2,29.2c0,2.9,10.3,1.1,12.6,2.6c5.4,3.6-23.4,32.4-23.4,47.7
			C861.4,469.1,887.8,438.6,890.3,436.1z"/>
		<path id="XMLID_196_" class="st5" d="M691.3,780.6c57.8-57.8,6.3-21.1,11.7-36.5c3.4-9.9,21.1-17.3,21.1-29.8
			c0-8.1-77.4,15.8-35.7,15.8c2.7,0-15.2,22.5-15.2,29.2c0,2.9,10.3,1.1,12.6,2.6c5.4,3.6-23.4,32.4-23.4,47.7
			C662.4,813.7,688.8,783.2,691.3,780.6z"/>
		<path id="XMLID_195_" class="st5" d="M1333.8,489.6c57.8-57.8,6.3-21.1,11.7-36.6c3.4-9.9,21.1-17.3,21.1-29.8
			c0-8.1-77.4,15.8-35.7,15.8c2.7,0-15.2,22.5-15.2,29.2c0,2.9,10.3,1.1,12.6,2.6c5.4,3.6-23.4,32.4-23.4,47.7
			C1304.8,522.6,1331.2,492.1,1333.8,489.6z"/>
		<path id="XMLID_194_" class="st1" d="M1134.8,834.1c57.8-57.8,6.3-21.1,11.7-36.5c3.4-9.9,21.1-17.3,21.1-29.8
			c0-8.1-77.4,15.8-35.7,15.8c2.7,0-15.2,22.5-15.2,29.2c0,2.9,10.3,1.1,12.6,2.6c5.4,3.6-23.4,32.4-23.4,47.7
			C1105.8,867.2,1132.2,836.6,1134.8,834.1z"/>
		<g id="XMLID_14_">
			<g id="XMLID_15_">
				<path id="XMLID_193_" class="st1" d="M242.5,85.1c3,6.5,21.5,67.6,25.2,68.8c0.3,0.9,4.1,1.2,4.9,1.3c4.5,0.5,5.2-0.3,8.9-1
					c18-3,30.8-11.5,46.6-16.1c3.3-1,2.9-1.3,5.4-2.3c5-2.1,4-10.3,1.9-13.9c-2.5-4.1-4.4-8.9-6.7-12.9
					c-7.9-13.7-24.6-63.8-32.5-72.7c-3.2-3.7-2.3-3.5-6.4-3.5c-1.8,0-13,2.2-14.2,2.8c-0.1,0-17.9,5-18.3,5.1
					c-4.8,0.6-5.5,1.4-9.3,2.4c-5.1,1.3-11.7,2.9-14.8,7.6c-1.7,5.4,1,8.4,2.2,13c0.5,1.9,1.6,3.3,1.9,5.3
					C237.4,71.9,241.1,82.2,242.5,85.1z"/>
				<path id="XMLID_192_" class="st2" d="M248.8,82.9c1,1.4,1.3,4.7,3.5,4.7c0.8,0,4.7-0.3,4.8-0.3c1.3,0.1,17.7-5.2,20.8-5.7
					c1.1-0.2,12.9-3.5,14.1-4c2.1-0.8,13-3.9,13.6-5.3c0.4,0,0.8-1.1,0.8-1.1c0.7-0.8-2.4-7.6-2.8-8.3c-1.1-1.7-5.5-13.7-5.5-13.7
					c-0.8-0.9-4.6-11.4-5.6-11.4c-0.5-1.8-6.6-0.6-7.1-0.2c-0.5,0.4-7.3,1.7-7.4,1.7c-0.6,0.5-14.4,4.3-15.9,4.5
					c-0.2,0.4-18.5,4.2-20.9,5.6c-2.5,1.4-3.9,2.5-1.5,5.4c0.3,0.4,2.2,6.1,2.6,6.9C243.6,64.6,248.3,82.3,248.8,82.9z"/>
				<path id="XMLID_191_" class="st5" d="M298.6,130.9c2.8-1,4.3-2.3,5.8-2.9c1.7-0.6,5.8-5.8,5.8-5.9c0,0,0.7-1.2,0.7-1.3
					c1.9-2.5,1.6-4.4,2-5.8c3.8-11.5-7.7-20.7-11.9-23.7c-7-5-18.5-2.7-24.7,1.8c-3.4,2.4-4.5,4.2-6.5,7.7c-1.3,2.4-1.5,3.7-1.7,6.7
					c-0.9,12.4,8.4,22.8,20.4,24.5C292.5,132.6,295,132.1,298.6,130.9z"/>
				<path id="XMLID_190_" class="st6" d="M296.8,115.2c2.6-1.9,3.4-7,1.9-9.6c-3.7-6.3-13.1-5.6-15.4-0.7c-2.2,4.7,0.1,9.7,4.8,11.6
					C290.7,117.5,294.6,116.8,296.8,115.2z"/>
			</g>
			<path id="XMLID_189_" class="st6" d="M283.8,50.9c-0.9,0-2.5-0.2-2.6,0.6c-1.4,8.1-5.8,17.4-5.8,24.4l-0.6,1.6
				C274.8,77.4,289.9,50.9,283.8,50.9z"/>
			<path id="XMLID_188_" class="st6" d="M273,62.7c1.2-2.1,5.9-14.7,6.3-17.1c0-0.2-0.8-0.6-1.1-0.5c-3.4,1.8-4.6,3.3-5.6,7.2
				c-1.4,4.9-3.4,7.1-4.9,11.7c-0.4,1.3-1.2,7.2,0.4,7.4C269.4,71.6,272.2,64.1,273,62.7z"/>
		</g>
		<g id="XMLID_16_">
			<g id="XMLID_17_">
				<path id="XMLID_187_" class="st1" d="M43.5,429.7c3,6.5,21.5,67.6,25.2,68.8c0.3,0.9,4.1,1.2,4.9,1.3c4.5,0.5,5.2-0.3,8.9-1
					c18-3,30.8-11.5,46.6-16.1c3.3-1,2.9-1.3,5.4-2.3c5-2.1,4-10.3,1.9-13.9c-2.5-4.1-4.4-8.9-6.8-12.9
					c-7.9-13.7-24.6-63.7-32.5-72.7c-3.2-3.7-2.3-3.5-6.4-3.5c-1.8,0-13,2.2-14.2,2.8c-0.1,0-17.9,5-18.3,5.1
					c-4.8,0.6-5.5,1.4-9.3,2.4c-5.1,1.4-11.7,2.9-14.8,7.6c-1.7,5.4,1,8.4,2.2,13c0.5,1.9,1.6,3.3,1.9,5.3
					C38.4,416.5,42.1,426.8,43.5,429.7z"/>
				<path id="XMLID_186_" class="st2" d="M49.8,427.5c1,1.4,1.3,4.7,3.5,4.7c0.8,0,4.7-0.3,4.8-0.3c1.3,0.1,17.7-5.2,20.8-5.7
					c1.1-0.2,12.9-3.5,14.1-4c2.1-0.8,13-3.9,13.6-5.3c0.4,0,0.8-1.1,0.8-1.1c0.7-0.8-2.4-7.6-2.8-8.3c-1.1-1.7-5.5-13.7-5.5-13.7
					c-0.8-0.9-4.6-11.4-5.6-11.4c-0.5-1.8-6.6-0.6-7.1-0.2c-0.5,0.4-7.3,1.7-7.4,1.7c-0.6,0.5-14.4,4.3-15.9,4.5
					c-0.2,0.4-18.5,4.2-20.9,5.6c-2.5,1.4-3.9,2.5-1.6,5.4c0.3,0.4,2.2,6.2,2.6,6.9C44.7,409.2,49.3,426.8,49.8,427.5z"/>
				<path id="XMLID_185_" class="st5" d="M99.6,475.4c2.8-1,4.3-2.3,5.8-2.9c1.7-0.6,5.8-5.8,5.8-5.9c0,0,0.7-1.2,0.7-1.3
					c1.9-2.5,1.6-4.4,2-5.8c3.8-11.5-7.7-20.7-11.9-23.7c-7-5-18.5-2.7-24.7,1.8c-3.4,2.4-4.5,4.2-6.5,7.7c-1.3,2.4-1.5,3.7-1.7,6.7
					c-0.9,12.4,8.4,22.8,20.4,24.5C93.5,477.2,96.1,476.7,99.6,475.4z"/>
				<path id="XMLID_184_" class="st6" d="M97.8,459.7c2.6-1.9,3.4-7,1.9-9.6c-3.7-6.3-13.1-5.6-15.4-0.7c-2.2,4.7,0.1,9.7,4.8,11.6
					C91.8,462,95.6,461.3,97.8,459.7z"/>
			</g>
			<path id="XMLID_183_" class="st6" d="M84.8,395.5c-0.9,0-2.5-0.2-2.6,0.6c-1.4,8.1-5.8,17.4-5.8,24.4l-0.6,1.6
				C75.8,421.9,90.9,395.5,84.8,395.5z"/>
			<path id="XMLID_182_" class="st6" d="M74,407.2c1.2-2.1,5.9-14.7,6.3-17.1c0-0.2-0.8-0.6-1.1-0.5c-3.4,1.7-4.6,3.3-5.6,7.2
				c-1.4,4.9-3.4,7.1-4.9,11.7c-0.4,1.3-1.2,7.2,0.4,7.4C70.4,416.2,73.2,408.6,74,407.2z"/>
		</g>
		<g id="XMLID_18_">
			<g id="XMLID_19_">
				<path id="XMLID_181_" class="st1" d="M685.9,138.6c3,6.5,21.5,67.6,25.2,68.8c0.3,0.9,4.1,1.2,4.9,1.3c4.5,0.5,5.2-0.3,8.9-1
					c18-3,30.8-11.5,46.6-16.1c3.3-1,2.9-1.3,5.4-2.3c5-2.1,4-10.3,1.9-13.9c-2.5-4.1-4.4-8.9-6.7-12.9
					c-7.9-13.7-24.6-63.8-32.5-72.7c-3.2-3.7-2.3-3.5-6.4-3.5c-1.8,0-13,2.2-14.2,2.8c-0.1,0-17.9,5-18.3,5.1
					c-4.8,0.6-5.5,1.4-9.3,2.4c-5.1,1.3-11.7,2.9-14.8,7.6c-1.7,5.4,1,8.4,2.2,13c0.5,1.9,1.6,3.3,1.9,5.3
					C680.9,125.4,684.6,135.7,685.9,138.6z"/>
				<path id="XMLID_180_" class="st2" d="M692.2,136.4c1,1.4,1.3,4.7,3.5,4.7c0.8,0,4.7-0.3,4.8-0.3c1.3,0.1,17.7-5.2,20.8-5.7
					c1.1-0.2,12.9-3.5,14.1-4c2.1-0.8,13-3.9,13.6-5.3c0.4,0,0.8-1.1,0.8-1.1c0.7-0.8-2.4-7.6-2.8-8.3c-1.1-1.7-5.5-13.7-5.5-13.7
					c-0.8-0.9-4.6-11.4-5.6-11.4c-0.5-1.8-6.6-0.6-7.1-0.2c-0.5,0.4-7.3,1.7-7.4,1.7c-0.6,0.5-14.4,4.3-15.9,4.5
					c-0.2,0.4-18.5,4.2-20.9,5.6c-2.5,1.4-3.9,2.5-1.6,5.4c0.3,0.4,2.2,6.1,2.6,6.9C687.1,118.1,691.8,135.8,692.2,136.4z"/>
				<path id="XMLID_179_" class="st5" d="M742,184.4c2.8-1,4.3-2.3,5.8-2.9c1.7-0.6,5.8-5.8,5.8-5.9c0,0,0.7-1.2,0.7-1.3
					c1.9-2.5,1.6-4.4,2-5.8c3.8-11.5-7.7-20.7-11.9-23.7c-7-5-18.5-2.7-24.7,1.8c-3.4,2.4-4.5,4.2-6.4,7.7c-1.3,2.4-1.5,3.7-1.7,6.7
					c-0.9,12.4,8.4,22.8,20.4,24.5C735.9,186.1,738.5,185.6,742,184.4z"/>
				<path id="XMLID_178_" class="st6" d="M740.2,168.6c2.6-1.9,3.4-7,1.9-9.6c-3.7-6.3-13.1-5.6-15.4-0.7c-2.2,4.7,0.1,9.7,4.8,11.6
					C734.2,171,738.1,170.3,740.2,168.6z"/>
			</g>
			<path id="XMLID_177_" class="st6" d="M727.3,104.4c-0.9,0-2.5-0.2-2.6,0.6c-1.4,8.1-5.8,17.4-5.8,24.4l-0.6,1.6
				C718.2,130.9,733.3,104.4,727.3,104.4z"/>
			<path id="XMLID_176_" class="st6" d="M716.5,116.2c1.2-2.1,5.9-14.7,6.3-17.1c0-0.2-0.8-0.6-1.1-0.5c-3.4,1.7-4.6,3.3-5.6,7.2
				c-1.4,4.9-3.4,7.1-4.9,11.7c-0.4,1.3-1.2,7.2,0.4,7.4C712.8,125.1,715.6,117.6,716.5,116.2z"/>
		</g>
		<g id="XMLID_20_">
			<g id="XMLID_21_">
				<path id="XMLID_175_" class="st1" d="M486.9,483.2c3,6.5,21.5,67.6,25.2,68.8c0.3,0.9,4.1,1.2,4.9,1.3c4.5,0.5,5.2-0.3,8.9-1
					c18-3,30.8-11.5,46.6-16.1c3.3-1,2.9-1.3,5.4-2.3c5-2.1,4-10.3,1.9-13.9c-2.5-4.1-4.4-8.9-6.7-12.9
					c-7.9-13.7-24.6-63.7-32.5-72.7c-3.2-3.7-2.3-3.5-6.4-3.5c-1.8,0-13,2.2-14.2,2.8c-0.1,0-17.9,5-18.3,5.1
					c-4.8,0.6-5.5,1.4-9.3,2.4c-5.1,1.4-11.7,2.9-14.8,7.6c-1.7,5.4,1,8.4,2.2,13c0.5,1.9,1.6,3.3,1.9,5.3
					C481.9,470,485.6,480.3,486.9,483.2z"/>
				<path id="XMLID_174_" class="st2" d="M493.3,481c1,1.4,1.3,4.7,3.5,4.7c0.8,0,4.7-0.3,4.8-0.3c1.3,0.1,17.7-5.2,20.8-5.7
					c1.1-0.2,12.9-3.5,14.1-4c2.1-0.8,13-3.9,13.6-5.3c0.4,0,0.8-1.1,0.8-1.1c0.7-0.8-2.4-7.6-2.8-8.3c-1.1-1.7-5.5-13.7-5.5-13.7
					c-0.8-0.9-4.6-11.4-5.6-11.4c-0.5-1.8-6.6-0.6-7.1-0.2c-0.5,0.4-7.3,1.7-7.4,1.7c-0.6,0.5-14.4,4.3-15.9,4.5
					c-0.2,0.4-18.5,4.2-20.9,5.6c-2.5,1.4-3.9,2.5-1.6,5.4c0.3,0.4,2.2,6.1,2.6,6.9C488.1,462.7,492.8,480.3,493.3,481z"/>
				<path id="XMLID_173_" class="st5" d="M543,528.9c2.8-1,4.3-2.3,5.8-2.9c1.7-0.6,5.8-5.8,5.8-5.9c0,0,0.7-1.3,0.7-1.3
					c1.9-2.5,1.6-4.4,2-5.8c3.8-11.5-7.7-20.7-11.9-23.7c-7-5-18.5-2.7-24.7,1.8c-3.4,2.4-4.5,4.2-6.5,7.7c-1.3,2.4-1.5,3.7-1.7,6.8
					c-0.9,12.4,8.4,22.8,20.4,24.5C536.9,530.7,539.5,530.2,543,528.9z"/>
				<path id="XMLID_172_" class="st6" d="M541.2,513.2c2.6-1.9,3.4-7,1.9-9.6c-3.7-6.3-13.1-5.6-15.4-0.7c-2.2,4.7,0.1,9.7,4.8,11.6
					C535.2,515.5,539.1,514.8,541.2,513.2z"/>
			</g>
			<path id="XMLID_171_" class="st6" d="M528.3,449c-0.9,0-2.5-0.2-2.6,0.6c-1.4,8.1-5.8,17.4-5.8,24.4l-0.6,1.6
				C519.2,475.4,534.3,449,528.3,449z"/>
			<path id="XMLID_170_" class="st6" d="M517.5,460.7c1.2-2.1,5.9-14.7,6.3-17.1c0-0.2-0.8-0.6-1.1-0.5c-3.4,1.7-4.6,3.3-5.6,7.2
				c-1.4,4.9-3.4,7.1-4.9,11.7c-0.4,1.3-1.2,7.2,0.4,7.4C513.8,469.7,516.7,462.1,517.5,460.7z"/>
		</g>
		<g id="XMLID_22_">
			<g id="XMLID_23_">
				<path id="XMLID_169_" class="st1" d="M287.9,827.7c3,6.5,21.5,67.6,25.2,68.8c0.3,0.9,4.1,1.2,4.9,1.3c4.5,0.5,5.2-0.3,8.9-1
					c18-3,30.8-11.5,46.6-16.1c3.3-1,2.9-1.3,5.4-2.3c5-2.1,4-10.3,1.9-13.9c-2.5-4.1-4.4-8.9-6.7-12.9
					c-7.9-13.7-24.6-63.7-32.5-72.7c-3.2-3.7-2.3-3.5-6.4-3.5c-1.8,0-13,2.2-14.1,2.8c-0.1,0-17.9,5-18.3,5.1
					c-4.8,0.6-5.5,1.4-9.3,2.4c-5.1,1.4-11.7,2.9-14.8,7.6c-1.7,5.4,1,8.4,2.2,13c0.5,1.9,1.6,3.3,1.9,5.3
					C282.9,814.5,286.6,824.8,287.9,827.7z"/>
				<path id="XMLID_168_" class="st2" d="M294.3,825.5c1,1.4,1.3,4.7,3.5,4.7c0.8,0,4.7-0.3,4.8-0.3c1.3,0.1,17.7-5.2,20.8-5.7
					c1.1-0.2,12.9-3.5,14.1-4c2.1-0.8,13-3.9,13.6-5.3c0.4,0,0.8-1.1,0.8-1.1c0.7-0.8-2.4-7.6-2.8-8.3c-1.1-1.7-5.5-13.7-5.5-13.7
					c-0.8-0.9-4.6-11.4-5.6-11.4c-0.5-1.8-6.6-0.6-7.1-0.2c-0.5,0.4-7.3,1.7-7.4,1.7c-0.6,0.5-14.4,4.3-15.9,4.5
					c-0.2,0.4-18.5,4.2-20.9,5.6c-2.5,1.4-3.9,2.5-1.5,5.4c0.3,0.4,2.2,6.1,2.6,6.9C289.1,807.2,293.8,824.9,294.3,825.5z"/>
				<path id="XMLID_167_" class="st5" d="M344,873.5c2.8-1,4.3-2.3,5.8-2.9c1.7-0.6,5.8-5.8,5.8-5.9c0,0,0.7-1.2,0.7-1.3
					c1.9-2.5,1.6-4.4,2-5.8c3.8-11.5-7.7-20.7-11.9-23.7c-7-5-18.5-2.7-24.7,1.8c-3.4,2.4-4.5,4.2-6.5,7.7c-1.3,2.4-1.5,3.7-1.7,6.7
					c-0.9,12.4,8.4,22.8,20.4,24.5C338,875.2,340.5,874.7,344,873.5z"/>
				<path id="XMLID_166_" class="st6" d="M342.2,857.7c2.6-1.9,3.4-7,1.9-9.6c-3.7-6.3-13.1-5.6-15.4-0.7c-2.2,4.7,0.1,9.7,4.8,11.6
					C336.2,860.1,340.1,859.3,342.2,857.7z"/>
			</g>
			<path id="XMLID_165_" class="st6" d="M329.3,793.5c-0.9,0-2.5-0.2-2.6,0.6c-1.4,8.1-5.8,17.3-5.8,24.4l-0.6,1.6
				C320.3,820,335.3,793.5,329.3,793.5z"/>
			<path id="XMLID_164_" class="st6" d="M318.5,805.3c1.2-2.1,5.9-14.7,6.3-17.1c0-0.2-0.8-0.6-1.1-0.5c-3.4,1.7-4.6,3.3-5.6,7.2
				c-1.4,4.9-3.4,7.1-4.9,11.7c-0.4,1.3-1.2,7.2,0.4,7.4C314.8,814.2,317.7,806.7,318.5,805.3z"/>
		</g>
		<g id="XMLID_24_">
			<g id="XMLID_25_">
				<path id="XMLID_163_" class="st1" d="M1129.3,192.1c3,6.5,21.5,67.6,25.2,68.8c0.3,0.9,4.1,1.2,4.9,1.3c4.5,0.5,5.2-0.3,8.9-1
					c18-3,30.8-11.5,46.6-16.1c3.3-1,2.9-1.3,5.4-2.3c5-2.1,4-10.3,1.9-13.9c-2.5-4.1-4.4-8.9-6.8-12.9
					c-7.9-13.7-24.6-63.7-32.5-72.7c-3.2-3.7-2.3-3.5-6.4-3.5c-1.8,0-13,2.2-14.2,2.8c-0.1,0-17.9,5-18.3,5.1
					c-4.8,0.6-5.5,1.4-9.3,2.4c-5.1,1.4-11.7,2.9-14.8,7.6c-1.7,5.4,1,8.4,2.2,13c0.5,1.9,1.6,3.3,1.9,5.3
					C1124.3,178.9,1128,189.2,1129.3,192.1z"/>
				<path id="XMLID_162_" class="st2" d="M1135.7,189.9c1,1.4,1.3,4.7,3.5,4.7c0.8,0,4.7-0.3,4.8-0.3c1.3,0.1,17.7-5.2,20.8-5.7
					c1.1-0.2,12.9-3.5,14.1-4c2.1-0.8,13-3.9,13.6-5.3c0.4,0,0.8-1.1,0.8-1.1c0.7-0.8-2.4-7.6-2.8-8.3c-1.1-1.7-5.5-13.7-5.5-13.7
					c-0.8-0.9-4.6-11.4-5.6-11.4c-0.5-1.8-6.6-0.6-7.1-0.2c-0.5,0.4-7.3,1.7-7.4,1.7c-0.6,0.5-14.4,4.3-15.9,4.5
					c-0.2,0.4-18.5,4.2-20.9,5.6c-2.5,1.4-3.9,2.5-1.5,5.4c0.3,0.4,2.2,6.1,2.6,6.9C1130.5,171.6,1135.2,189.3,1135.7,189.9z"/>
				<path id="XMLID_161_" class="st5" d="M1185.5,237.9c2.8-1,4.3-2.3,5.8-2.9c1.7-0.6,5.8-5.8,5.8-5.9c0,0,0.7-1.2,0.7-1.3
					c1.9-2.5,1.6-4.4,2-5.8c3.8-11.5-7.8-20.7-11.9-23.7c-7-5-18.5-2.7-24.7,1.8c-3.4,2.4-4.5,4.2-6.5,7.7c-1.3,2.4-1.5,3.7-1.7,6.8
					c-0.9,12.4,8.4,22.8,20.5,24.5C1179.4,239.6,1181.9,239.1,1185.5,237.9z"/>
				<path id="XMLID_160_" class="st6" d="M1183.7,222.1c2.6-1.9,3.4-7,1.9-9.6c-3.7-6.3-13.1-5.6-15.4-0.7
					c-2.2,4.7,0.1,9.7,4.8,11.6C1177.6,224.5,1181.5,223.7,1183.7,222.1z"/>
			</g>
			<path id="XMLID_159_" class="st6" d="M1170.7,157.9c-0.9,0-2.5-0.2-2.6,0.6c-1.4,8.1-5.8,17.4-5.8,24.4l-0.6,1.6
				C1161.7,184.4,1176.7,157.9,1170.7,157.9z"/>
			<path id="XMLID_158_" class="st6" d="M1159.9,169.7c1.2-2.1,5.9-14.7,6.3-17.1c0-0.2-0.8-0.6-1.1-0.5c-3.4,1.7-4.6,3.3-5.6,7.2
				c-1.4,4.9-3.4,7.1-4.9,11.7c-0.4,1.3-1.2,7.2,0.4,7.4C1156.3,178.6,1159.1,171.1,1159.9,169.7z"/>
		</g>
		<g id="XMLID_26_">
			<g id="XMLID_27_">
				<path id="XMLID_157_" class="st1" d="M930.4,536.7c3,6.5,21.5,67.6,25.2,68.8c0.3,0.9,4.1,1.2,4.9,1.3c4.5,0.5,5.2-0.3,8.9-1
					c18-3,30.8-11.5,46.6-16.1c3.3-1,2.9-1.3,5.4-2.3c5-2.1,4-10.3,1.9-13.9c-2.5-4.1-4.4-8.9-6.8-12.9
					c-7.9-13.7-24.6-63.8-32.5-72.7c-3.2-3.7-2.3-3.5-6.4-3.5c-1.8,0-13,2.2-14.2,2.8c-0.1,0-17.9,5-18.3,5.1
					c-4.8,0.6-5.5,1.4-9.3,2.4c-5.1,1.4-11.7,2.9-14.8,7.6c-1.7,5.4,1,8.4,2.2,13c0.5,1.9,1.6,3.3,1.9,5.3
					C925.3,523.4,929,533.7,930.4,536.7z"/>
				<path id="XMLID_156_" class="st2" d="M936.7,534.5c1,1.4,1.3,4.7,3.5,4.7c0.8,0,4.7-0.3,4.8-0.3c1.3,0.1,17.7-5.2,20.8-5.7
					c1.1-0.2,12.9-3.5,14.1-4c2.1-0.8,13-3.9,13.6-5.3c0.4,0,0.8-1.1,0.8-1.1c0.7-0.8-2.4-7.6-2.8-8.3c-1.1-1.7-5.5-13.7-5.5-13.7
					c-0.8-0.9-4.6-11.4-5.6-11.4c-0.5-1.8-6.6-0.6-7.1-0.2c-0.5,0.4-7.3,1.7-7.4,1.7c-0.6,0.5-14.4,4.3-15.9,4.5
					c-0.2,0.4-18.5,4.2-20.9,5.6c-2.5,1.4-3.9,2.5-1.5,5.4c0.3,0.4,2.2,6.2,2.6,6.9C931.5,516.2,936.2,533.8,936.7,534.5z"/>
				<path id="XMLID_155_" class="st5" d="M986.5,582.4c2.8-1,4.3-2.3,5.8-2.9c1.7-0.6,5.8-5.8,5.8-5.9c0,0,0.7-1.2,0.7-1.3
					c1.9-2.5,1.6-4.4,2-5.8c3.8-11.5-7.7-20.7-11.9-23.7c-7-5-18.5-2.7-24.7,1.8c-3.4,2.4-4.5,4.2-6.5,7.7c-1.3,2.4-1.5,3.7-1.7,6.8
					c-0.9,12.4,8.4,22.8,20.5,24.5C980.4,584.2,982.9,583.6,986.5,582.4z"/>
				<path id="XMLID_154_" class="st6" d="M984.7,566.7c2.6-1.9,3.4-7,1.9-9.6c-3.7-6.4-13.1-5.6-15.4-0.7c-2.2,4.7,0.1,9.7,4.8,11.6
					C978.6,569,982.5,568.3,984.7,566.7z"/>
			</g>
			<path id="XMLID_153_" class="st6" d="M971.7,502.5c-0.9,0-2.5-0.2-2.6,0.6c-1.4,8.1-5.8,17.3-5.8,24.4l-0.6,1.6
				C962.7,528.9,977.8,502.5,971.7,502.5z"/>
			<path id="XMLID_152_" class="st6" d="M960.9,514.2c1.2-2.1,5.9-14.7,6.3-17.1c0-0.2-0.8-0.6-1.1-0.5c-3.4,1.7-4.6,3.3-5.6,7.2
				c-1.4,4.9-3.4,7.1-4.9,11.7c-0.4,1.3-1.2,7.2,0.4,7.4C957.3,523.2,960.1,515.6,960.9,514.2z"/>
		</g>
		<g id="XMLID_28_">
			<g id="XMLID_29_">
				<path id="XMLID_151_" class="st1" d="M731.4,881.2c3,6.5,21.5,67.6,25.2,68.8c0.3,0.9,4.1,1.2,4.9,1.3c4.5,0.5,5.2-0.3,8.9-1
					c18-3,30.8-11.5,46.6-16.1c3.3-1,2.9-1.3,5.4-2.3c5-2.1,4-10.3,1.9-13.9c-2.5-4.1-4.4-8.9-6.8-12.9
					c-7.9-13.7-24.6-63.7-32.5-72.6c-3.2-3.7-2.3-3.5-6.4-3.5c-1.8,0-13,2.2-14.1,2.8c-0.1,0-17.9,5-18.3,5.1
					c-4.8,0.6-5.5,1.4-9.3,2.4c-5.1,1.4-11.7,2.9-14.8,7.6c-1.7,5.4,1,8.4,2.2,13c0.5,1.9,1.6,3.3,1.9,5.3
					C726.3,868,730,878.3,731.4,881.2z"/>
				<path id="XMLID_150_" class="st2" d="M737.7,879c1,1.4,1.3,4.7,3.5,4.7c0.8,0,4.7-0.3,4.8-0.3c1.3,0.1,17.7-5.2,20.8-5.7
					c1.1-0.2,12.9-3.5,14.1-4c2.1-0.8,13-3.9,13.6-5.3c0.4,0,0.8-1.1,0.8-1.1c0.7-0.8-2.4-7.6-2.8-8.3c-1.1-1.7-5.5-13.7-5.5-13.7
					c-0.8-0.9-4.6-11.4-5.6-11.4c-0.5-1.8-6.6-0.6-7.1-0.2c-0.5,0.4-7.3,1.7-7.4,1.7c-0.6,0.5-14.4,4.3-15.9,4.5
					c-0.2,0.4-18.5,4.2-20.9,5.6c-2.5,1.4-3.9,2.5-1.6,5.4c0.3,0.4,2.2,6.2,2.6,6.9C732.5,860.7,737.2,878.4,737.7,879z"/>
				<path id="XMLID_149_" class="st5" d="M787.5,927c2.8-1,4.3-2.3,5.8-2.9c1.7-0.6,5.8-5.8,5.8-5.9c0,0,0.7-1.2,0.7-1.3
					c1.9-2.5,1.6-4.4,2-5.8c3.8-11.5-7.7-20.7-11.9-23.7c-7-5-18.5-2.7-24.7,1.8c-3.4,2.4-4.5,4.2-6.5,7.7c-1.3,2.4-1.5,3.7-1.7,6.7
					c-0.9,12.4,8.4,22.8,20.4,24.5C781.4,928.7,784,928.2,787.5,927z"/>
				<path id="XMLID_148_" class="st6" d="M785.7,911.2c2.6-1.9,3.4-7,1.9-9.6c-3.7-6.4-13.1-5.6-15.4-0.7c-2.2,4.7,0.1,9.7,4.8,11.6
					C779.7,913.5,783.5,912.8,785.7,911.2z"/>
			</g>
			<path id="XMLID_147_" class="st6" d="M772.7,847c-0.9,0-2.5-0.2-2.6,0.6c-1.4,8.1-5.8,17.3-5.8,24.4l-0.6,1.6
				C763.7,873.4,778.8,847,772.7,847z"/>
			<path id="XMLID_146_" class="st6" d="M761.9,858.8c1.2-2.1,5.9-14.7,6.3-17.1c0-0.2-0.8-0.6-1.1-0.5c-3.4,1.7-4.6,3.3-5.6,7.2
				c-1.4,4.9-3.4,7.1-4.9,11.7c-0.4,1.3-1.2,7.2,0.4,7.4C758.3,867.7,761.1,860.2,761.9,858.8z"/>
		</g>
		<g id="XMLID_30_">
			<g id="XMLID_31_">
				<path id="XMLID_145_" class="st1" d="M1373.8,590.2c3,6.5,21.5,67.6,25.2,68.8c0.1,0.3,0.5,0.5,1,0.6V542.6
					c-5.1,1.4-11.3,3.1-11.5,3.2c-4.8,0.6-5.5,1.4-9.3,2.4c-5.1,1.3-11.7,2.9-14.8,7.6c-1.7,5.4,1,8.4,2.2,13
					c0.5,1.9,1.6,3.3,1.9,5.3C1368.7,576.9,1372.5,587.2,1373.8,590.2z"/>
				<path id="XMLID_144_" class="st2" d="M1380.1,588c1,1.4,1.3,4.7,3.5,4.7c0.8,0,4.7-0.3,4.8-0.3c0.7,0.1,6.3-1.6,11.6-3.1v-42
					c-3.1,0.9-6,1.6-6.6,1.7c-0.2,0.4-18.5,4.2-20.9,5.6c-2.5,1.4-3.9,2.5-1.6,5.4c0.3,0.4,2.2,6.1,2.6,6.9
					C1375,569.6,1379.7,587.3,1380.1,588z"/>
				<path id="XMLID_143_" class="st5" d="M1399.5,612.6c-0.2,2.2,0,4.4,0.5,6.5v-10.3C1399.7,609.9,1399.6,611,1399.5,612.6z"/>
			</g>
			<path id="XMLID_142_" class="st6" d="M1400,576.2v-9.8c-0.4,0.8-0.7,1.7-1.1,2.8c-0.4,1.3-1.2,7.2,0.4,7.4
				C1399.6,576.5,1399.8,576.4,1400,576.2z"/>
		</g>
		<g id="XMLID_32_">
			<g id="XMLID_33_">
				<path id="XMLID_141_" class="st1" d="M1174.8,934.7c1.8,3.9,9,26.9,15.4,45.3h79.1c0.4-3-0.5-6.5-1.7-8.5
					c-2.5-4.1-4.4-8.9-6.8-12.9c-7.9-13.7-24.6-63.7-32.5-72.7c-3.2-3.7-2.3-3.5-6.4-3.5c-1.8,0-13,2.2-14.2,2.8
					c-0.1,0-17.9,5-18.3,5.1c-4.8,0.6-5.5,1.4-9.3,2.4c-5.1,1.3-11.7,2.9-14.8,7.6c-1.7,5.4,1,8.4,2.2,13c0.5,1.9,1.6,3.3,1.9,5.3
					C1169.8,921.5,1173.5,931.8,1174.8,934.7z"/>
				<path id="XMLID_140_" class="st2" d="M1181.1,932.5c1,1.4,1.3,4.7,3.5,4.7c0.8,0,4.7-0.3,4.8-0.3c1.3,0.1,17.7-5.2,20.8-5.7
					c1.1-0.2,12.9-3.5,14.1-4c2.1-0.8,13-3.9,13.6-5.3c0.4,0,0.8-1.1,0.8-1.1c0.7-0.8-2.4-7.6-2.8-8.3c-1.1-1.7-5.5-13.7-5.5-13.7
					c-0.8-0.9-4.6-11.4-5.6-11.4c-0.5-1.8-6.6-0.6-7.1-0.2c-0.5,0.4-7.3,1.7-7.4,1.7c-0.6,0.5-14.4,4.3-15.9,4.5
					c-0.2,0.4-18.5,4.2-20.9,5.6c-2.5,1.4-3.9,2.5-1.5,5.4c0.3,0.4,2.1,6.1,2.6,6.9C1176,914.2,1180.7,931.8,1181.1,932.5z"/>
				<path id="XMLID_139_" class="st5" d="M1232.1,980c2.1-0.9,3.4-1.9,4.6-2.4c1.7-0.6,5.8-5.8,5.8-5.9c0,0,0.7-1.3,0.7-1.3
					c1.9-2.5,1.6-4.4,2-5.8c3.8-11.5-7.7-20.7-11.9-23.7c-7-5-18.5-2.7-24.7,1.8c-3.4,2.4-4.5,4.2-6.4,7.7c-1.3,2.4-1.5,3.7-1.7,6.8
					c-0.7,10.2,5.4,19.1,14.4,22.8H1232.1z"/>
				<path id="XMLID_138_" class="st6" d="M1229.1,964.7c2.6-1.9,3.4-7,1.9-9.6c-3.7-6.4-13.1-5.6-15.4-0.7
					c-2.2,4.7,0.1,9.7,4.8,11.6C1223.1,967,1227,966.3,1229.1,964.7z"/>
			</g>
			<path id="XMLID_137_" class="st6" d="M1216.2,900.5c-0.9,0-2.5-0.2-2.6,0.6c-1.4,8.1-5.8,17.4-5.8,24.4l-0.6,1.6
				C1207.1,926.9,1222.2,900.5,1216.2,900.5z"/>
			<path id="XMLID_136_" class="st6" d="M1205.4,912.3c1.2-2.1,5.9-14.7,6.3-17.1c0-0.2-0.8-0.6-1.1-0.5c-3.4,1.7-4.6,3.3-5.6,7.2
				c-1.4,4.9-3.4,7.1-4.9,11.7c-0.4,1.3-1.2,7.2,0.4,7.4C1201.7,921.2,1204.5,913.7,1205.4,912.3z"/>
		</g>
		<g id="XMLID_34_">
			<path id="XMLID_135_" class="st2" d="M147.7,247.8c6-10.4,10.6-16.7,15.5-28.3c2.9-6.8,6.8-13.3,10-21
				c8.7-20.6-4.8-23.2-22.9-30.8c-18.6-7.9-33.1-22.4-53.2-31c-11.8-5-42.9-24.9-59.7-34.5c-10.8-6.2-11.4-3.3-16.8,4.3
				c-5.1,7.1-14.1,22-20.6,33.6v47.2c37.8,22,76,51.3,113.6,67.2c5.4,2.3,19.3,10.4,22.4,10.2C138,264.7,146.2,250.4,147.7,247.8z"
				/>
			<path id="XMLID_134_" class="st1" d="M53.8,185.6c3.4-4.3,7.8-12.4,10.8-17.5c3.4-5.9,4.8-9.8,7.4-15.4c1.3-2.7-1.8-5.3-2.6-6.5
				c-1.1-1.7-45.8-27.6-49.4-26.9c-1.5,0.3-12.1,16.6-20,31.1v29.1c13.7,9.5,39,22.9,41.8,22.6C45.8,201.7,51.1,189,53.8,185.6z"/>
			<path id="XMLID_133_" class="st5" d="M41.9,190.2c16.2-5.9,19.7-18.9,20.9-27c0.9-6.4-4.6-21.5-10.9-25.2
				c-11.5-6.8-21.6-8.6-29.9-6.1c-16.4,4.8-22.4,22.9-21,33.8C3.4,185.3,25.5,196.1,41.9,190.2z"/>
			<path id="XMLID_132_" class="st6" d="M35.7,172.6c6.3-2.3,7.7-7.4,8.1-10.5c0.4-2.5-1.8-8.4-4.2-9.8c-4.5-2.7-8.4-3.3-11.7-2.4
				c-6.4,1.9-8.7,8.9-8.2,13.1C20.7,170.7,29.3,174.9,35.7,172.6z"/>
			<path id="XMLID_131_" class="st1" d="M65,214.7c4.4,1.9,8.5,5.3,13.2,6.3c1-0.8,4.7-8.3,4.1-9.2c-1.3-1.8-28.7-16.7-29-16.7
				c-0.9,0-3,3.2-3.1,4.5c-0.6,4.1-2.5,4.3,1.1,7.5C54.3,209.6,61.3,213.1,65,214.7z"/>
			<path id="XMLID_130_" class="st5" d="M58.5,207c0.9-1,1.7-2.7,2.1-4c0.6-1.8-3-3-4.3-3.6c-1.6-0.4-2.7,3.8-2.8,4.8
				C53.4,204.9,58.2,207.4,58.5,207z"/>
			<path id="XMLID_129_" class="st5" d="M66.3,211.4c0.8,0.2,2.3-3.6,2.2-4.7c-0.1-0.7-3.2-2.3-4-2.5c-1.8-0.3-3.1,4.4-2.9,4.9
				C62.2,210,65.4,211.2,66.3,211.4z"/>
			<path id="XMLID_128_" class="st5" d="M77.1,213c1.2-1.9-3.8-4.2-4.5-4.4c-2-0.4-3.8,4.7-2.7,5.6c1.4,1.2,1.9,1.3,3.4,2.2
				C76.2,218.2,76.1,214.6,77.1,213z"/>
			<path id="XMLID_127_" class="st5" d="M84.7,208.7c0.5,0.3,17.6-23.6,12.5-26.6c-6.7-3.9-21.6-13.7-27.2-16
				c-1.1-0.5-4.8,6.1-5.3,6.9c-4,6.9-4.3,10.3-7.3,16.8c-2.2,4.7,6.8,8.1,10.2,10.1C72.1,202.5,80.9,206.3,84.7,208.7z"/>
			<path id="XMLID_126_" class="st1" d="M98.9,179.3c3.1-0.1,5.8-7.6,4.6-8.2c-4.1-2.2-10.5-6.6-15.1-9.2
				c-2.7-1.6-11.4-7.2-11.7-6.7c-1.5,2.2-6.3,8-2.5,10C77.5,166.9,96.9,179.3,98.9,179.3z"/>
			<path id="XMLID_125_" class="st5" d="M170.6,182.7c4,2.3,3.5,1.7,6.4-3.3c2.7-4.8,6-8.8,8.4-12.9c2.4-4.1,2.1-4.5,3.7-8.2
				c1.2-2.8,0.9-1.6,0.5-3.9c-0.4-2-13.6-9.9-16.1-10.8c-4.4-1.5-7.3-3.7-11.8-6.4c-2.2-1.3-15.5-9-15.9-9
				c-1.3-0.2-29.8-17.1-33.7-19.3c-5.8-3.4-11.8-6.8-17.7-10.2C81,91,66.8,83.5,53.8,75.3c-6.5-4.1-10,4.2-13,9.4
				c-3.3,5.8-6,11.3-9.2,16.9c1-0.2,2.7,1.4,3.8,1.5c0.5,0.1,6.1-10.2,7-11.6c2.4-4.2,5-11.9,9.5-11.9c2.2,0,3.1,1.2,3.9,1.3
				c1.6,0.2,34.2,21.5,37.9,23.6c4.4,2.5,10,4.8,13.6,6.9c0.1,0.1,0.6,0.4,0.7,0.4c8,3.6,18.9,10.3,26.9,14.8
				c9.3,5.4,24.7,16.3,33.6,20.2c5,2.2,8.3,4.8,12.7,7.1c1.2,0.7,3.3,3.1,3.3,3.1c-0.6,0.8-11.9,21.4-12,21.8
				C172.2,179.2,170.8,182.5,170.6,182.7z"/>
			<path id="XMLID_124_" class="st1" d="M152.8,139.3c2.4-1,3.6-6.9,4.1-7.5c1.8-2.6-56-37.9-69-40.1c-7-1.2-7.7,6.3-7.1,7.4
				C81.5,100.4,149.8,140.6,152.8,139.3z"/>
			<path id="XMLID_123_" class="st1" d="M88.8,230.1c1,1.5,12.7,8.1,15.1,9.8c4.5,3.1,26.8,16,30.4,15.7c4-0.4,9.3-13.1,12-16.5
				c3.4-4.3,7.8-12.4,10.8-17.5c3.4-5.9,4.8-9.8,7.4-15.4c1.3-2.7-1.8-5.3-2.6-6.5c-1.1-1.7-45.8-27.6-49.4-26.9
				c-2.3,0.4-21.5,32.5-22,34.9c-0.9,4.5-8.7,14-6.5,18C86,228.9,88.1,229.1,88.8,230.1z"/>
			<path id="XMLID_122_" class="st5" d="M134.5,243.6c16.2-5.9,19.7-18.9,20.9-27c0.9-6.4-4.6-21.5-10.9-25.2
				c-11.5-6.8-21.6-8.6-29.9-6.1c-16.4,4.8-22.4,22.9-21,33.8C96,238.8,118.1,249.6,134.5,243.6z"/>
			<path id="XMLID_121_" class="st6" d="M128.3,226c6.3-2.3,7.7-7.3,8.1-10.5c0.4-2.5-1.8-8.4-4.2-9.8c-4.5-2.7-8.4-3.3-11.7-2.4
				c-6.4,1.9-8.7,8.9-8.2,13.1C113.3,224.2,121.9,228.4,128.3,226z"/>
		</g>
		<g id="XMLID_35_">
			<path id="XMLID_120_" class="st2" d="M557,308.1c5.4,2.3,19.3,10.4,22.4,10.2c2.1-0.1,10.3-14.5,11.8-17.1
				c6-10.4,10.6-16.7,15.5-28.3c2.9-6.8,6.8-13.3,10-21c8.7-20.6-4.8-23.2-22.9-30.8c-18.6-7.9-33.1-22.4-53.2-31
				c-11.8-5-42.9-24.9-59.7-34.5c-10.8-6.2-11.4-3.3-16.8,4.3c-6.8,9.5-20.7,33.2-26.3,43.9c-3,5.8-16.1,25.1-8.5,29.1
				C471.7,255.4,514.8,290.2,557,308.1z"/>
			<path id="XMLID_119_" class="st1" d="M485.2,255.6c4-0.4,9.3-13.1,12-16.5c3.4-4.3,7.8-12.4,10.8-17.5c3.4-5.9,4.8-9.8,7.4-15.4
				c1.3-2.7-1.8-5.3-2.6-6.5c-1.1-1.7-45.8-27.6-49.4-26.9c-2.6,0.5-31.5,47.5-28.5,52.8C438.9,232.6,481.6,255.9,485.2,255.6z"/>
			<path id="XMLID_118_" class="st5" d="M485.4,243.6c16.2-5.9,19.7-18.9,20.9-27c0.9-6.4-4.6-21.5-10.9-25.2
				c-11.5-6.8-21.6-8.6-29.9-6.1c-16.4,4.8-22.4,22.9-21,33.8C446.9,238.8,469,249.6,485.4,243.6z"/>
			<path id="XMLID_117_" class="st6" d="M479.1,226.1c6.3-2.3,7.7-7.3,8.1-10.5c0.4-2.5-1.8-8.4-4.2-9.8c-4.5-2.7-8.4-3.3-11.7-2.4
				c-6.4,1.9-8.7,8.9-8.2,13.1C464.2,224.2,472.8,228.4,479.1,226.1z"/>
			<path id="XMLID_116_" class="st1" d="M508.5,268.2c4.4,1.9,8.5,5.3,13.2,6.3c1-0.8,4.7-8.3,4.1-9.2c-1.3-1.8-28.7-16.7-29-16.7
				c-0.9,0-3,3.2-3.1,4.5c-0.6,4.1-2.5,4.3,1.1,7.5C497.7,263.1,504.8,266.6,508.5,268.2z"/>
			<path id="XMLID_115_" class="st5" d="M501.9,260.5c0.9-1,1.7-2.7,2.1-4c0.6-1.9-3-3-4.3-3.6c-1.6-0.4-2.7,3.8-2.8,4.8
				C496.8,258.4,501.6,260.9,501.9,260.5z"/>
			<path id="XMLID_114_" class="st5" d="M509.8,264.9c0.8,0.2,2.3-3.6,2.2-4.7c-0.1-0.7-3.2-2.3-4-2.5c-1.8-0.3-3.1,4.4-2.9,4.9
				C505.6,263.5,508.8,264.7,509.8,264.9z"/>
			<path id="XMLID_113_" class="st5" d="M520.5,266.5c1.2-1.9-3.8-4.2-4.5-4.4c-2-0.4-3.8,4.7-2.7,5.6c1.4,1.2,1.9,1.3,3.4,2.2
				C519.6,271.7,519.5,268.1,520.5,266.5z"/>
			<path id="XMLID_112_" class="st5" d="M528.1,262.2c0.5,0.3,17.6-23.6,12.5-26.6c-6.7-3.9-21.6-13.7-27.2-16
				c-1.1-0.5-4.8,6.1-5.3,6.9c-4,6.9-4.3,10.3-7.3,16.8c-2.2,4.7,6.8,8.1,10.2,10.1C515.5,256,524.4,259.8,528.1,262.2z"/>
			<path id="XMLID_111_" class="st1" d="M542.3,232.8c3.1-0.1,5.8-7.6,4.6-8.2c-4.1-2.2-10.5-6.6-15.1-9.2
				c-2.7-1.6-11.4-7.2-11.7-6.7c-1.5,2.2-6.3,8-2.5,10C520.9,220.4,540.4,232.8,542.3,232.8z"/>
			<path id="XMLID_110_" class="st5" d="M614.1,236.2c4,2.3,3.5,1.7,6.4-3.3c2.7-4.8,6-8.8,8.4-12.9c2.4-4.1,2.1-4.5,3.7-8.2
				c1.2-2.8,0.9-1.6,0.5-3.9c-0.4-2-13.6-9.9-16.1-10.8c-4.4-1.5-7.3-3.7-11.8-6.4c-2.2-1.3-15.5-9-15.9-9
				c-1.3-0.2-29.8-17.1-33.7-19.3c-5.8-3.4-11.8-6.8-17.7-10.2c-13.4-7.7-27.6-15.2-40.6-23.4c-6.5-4.1-10,4.2-13,9.4
				c-3.3,5.8-6,11.3-9.2,16.9c1-0.2,2.7,1.4,3.8,1.5c0.5,0.1,6.1-10.2,7-11.6c2.4-4.2,5-11.9,9.5-11.9c2.2,0,3.1,1.2,3.9,1.3
				c1.6,0.2,34.2,21.5,37.9,23.6c4.4,2.5,10,4.8,13.6,6.9c0.1,0.1,0.6,0.4,0.7,0.4c8,3.6,18.9,10.3,26.9,14.8
				c9.3,5.4,24.8,16.3,33.6,20.2c5,2.2,8.3,4.8,12.7,7.1c1.2,0.7,3.3,3.1,3.3,3.1c-0.6,0.8-11.9,21.4-12,21.8
				C615.7,232.7,614.2,236,614.1,236.2z"/>
			<path id="XMLID_109_" class="st1" d="M596.3,192.8c2.4-1,3.6-6.9,4.1-7.5c1.8-2.6-56-37.9-69-40.1c-7-1.2-7.7,6.3-7.1,7.4
				C524.9,153.9,593.3,194.1,596.3,192.8z"/>
			<path id="XMLID_108_" class="st1" d="M532.3,283.6c1,1.5,12.7,8.1,15.1,9.8c4.5,3.1,26.8,16,30.4,15.7c4-0.4,9.3-13.1,12-16.5
				c3.4-4.3,7.8-12.4,10.8-17.5c3.4-5.9,4.8-9.8,7.4-15.4c1.3-2.7-1.8-5.3-2.6-6.5c-1.1-1.7-45.8-27.6-49.4-26.9
				c-2.3,0.4-21.5,32.5-22,34.9c-0.9,4.5-8.7,14-6.5,18C529.4,282.4,531.5,282.5,532.3,283.6z"/>
			<path id="XMLID_107_" class="st5" d="M578,297.1c16.2-5.9,19.7-18.9,20.9-27c0.9-6.4-4.6-21.5-10.9-25.2
				c-11.5-6.8-21.6-8.6-29.9-6.1c-16.4,4.8-22.4,22.9-21,33.8C539.5,292.3,561.6,303.1,578,297.1z"/>
			<path id="XMLID_106_" class="st6" d="M571.7,279.5c6.3-2.3,7.7-7.3,8.1-10.5c0.4-2.5-1.8-8.4-4.2-9.8c-4.5-2.7-8.4-3.3-11.7-2.4
				c-6.4,1.9-8.7,8.9-8.2,13.1C556.8,277.6,565.3,281.9,571.7,279.5z"/>
		</g>
		<g id="XMLID_36_">
			<path id="XMLID_105_" class="st2" d="M358,652.7c5.4,2.3,19.3,10.4,22.4,10.2c2.1-0.1,10.3-14.5,11.7-17
				c6-10.4,10.6-16.7,15.5-28.3c2.9-6.8,6.8-13.3,10-21c8.7-20.6-4.8-23.2-22.9-30.8c-18.6-7.9-33.1-22.4-53.2-31
				c-11.8-5-42.9-24.9-59.7-34.5c-10.8-6.2-11.4-3.3-16.8,4.3c-6.8,9.5-20.7,33.2-26.3,43.9c-3,5.8-16.1,25.1-8.5,29.1
				C272.8,599.9,315.8,634.7,358,652.7z"/>
			<path id="XMLID_104_" class="st1" d="M286.2,600.1c4-0.4,9.3-13.1,12-16.5c3.4-4.3,7.8-12.4,10.8-17.5c3.4-5.9,4.8-9.8,7.4-15.4
				c1.3-2.7-1.8-5.3-2.6-6.5c-1.1-1.7-45.8-27.6-49.4-26.9c-2.6,0.5-31.5,47.5-28.5,52.8C239.9,577.2,282.6,600.5,286.2,600.1z"/>
			<path id="XMLID_103_" class="st5" d="M286.4,588.2c16.2-5.9,19.7-18.9,20.9-27c0.9-6.4-4.6-21.5-10.9-25.2
				c-11.5-6.8-21.6-8.6-29.9-6.1c-16.4,4.8-22.4,22.9-21,33.8C247.9,583.4,270,594.2,286.4,588.2z"/>
			<path id="XMLID_102_" class="st6" d="M280.1,570.6c6.3-2.3,7.7-7.3,8.1-10.5c0.4-2.5-1.8-8.4-4.2-9.8c-4.5-2.6-8.4-3.3-11.7-2.4
				c-6.4,1.9-8.7,8.9-8.2,13.1C265.2,568.7,273.8,572.9,280.1,570.6z"/>
			<path id="XMLID_101_" class="st1" d="M309.5,612.7c4.4,1.9,8.5,5.3,13.2,6.3c0.9-0.8,4.7-8.3,4.1-9.2c-1.3-1.8-28.7-16.7-29-16.7
				c-0.9,0-3,3.2-3.1,4.5c-0.6,4.1-2.5,4.3,1.1,7.5C298.7,607.6,305.8,611.1,309.5,612.7z"/>
			<path id="XMLID_100_" class="st5" d="M303,605.1c0.9-1,1.7-2.7,2.1-4c0.6-1.9-3-3-4.3-3.6c-1.6-0.4-2.7,3.8-2.8,4.8
				C297.8,602.9,302.6,605.5,303,605.1z"/>
			<path id="XMLID_99_" class="st5" d="M310.8,609.4c0.8,0.2,2.3-3.6,2.2-4.7c-0.1-0.7-3.2-2.3-4-2.5c-1.8-0.3-3.1,4.4-2.9,4.9
				C306.6,608,309.8,609.2,310.8,609.4z"/>
			<path id="XMLID_98_" class="st5" d="M321.5,611.1c1.2-1.9-3.8-4.2-4.5-4.4c-2-0.4-3.8,4.7-2.7,5.6c1.4,1.2,1.9,1.3,3.4,2.2
				C320.6,616.2,320.5,612.6,321.5,611.1z"/>
			<path id="XMLID_97_" class="st5" d="M329.1,606.7c0.5,0.3,17.6-23.6,12.5-26.6c-6.7-3.8-21.6-13.7-27.2-16
				c-1.1-0.5-4.8,6.1-5.3,6.9c-4,6.9-4.3,10.3-7.3,16.8c-2.2,4.7,6.8,8.1,10.2,10.1C316.5,600.5,325.4,604.4,329.1,606.7z"/>
			<path id="XMLID_96_" class="st1" d="M343.3,577.3c3.1-0.1,5.8-7.6,4.6-8.2c-4.1-2.2-10.5-6.6-15.1-9.2
				c-2.7-1.6-11.4-7.2-11.7-6.7c-1.5,2.2-6.3,8-2.5,10C321.9,565,341.4,577.4,343.3,577.3z"/>
			<path id="XMLID_95_" class="st5" d="M415.1,580.8c4,2.3,3.5,1.7,6.4-3.3c2.7-4.8,6-8.8,8.4-12.9c2.4-4.1,2.1-4.5,3.7-8.2
				c1.2-2.8,0.9-1.6,0.5-3.9c-0.4-2-13.6-9.9-16.1-10.8c-4.4-1.5-7.3-3.7-11.8-6.4c-2.2-1.3-15.5-9-15.9-9
				c-1.3-0.2-29.8-17.1-33.7-19.3c-5.8-3.4-11.8-6.8-17.7-10.2c-13.4-7.7-27.6-15.2-40.6-23.4c-6.5-4.1-10,4.2-13,9.4
				c-3.3,5.8-6,11.3-9.2,16.9c1-0.2,2.7,1.4,3.8,1.5c0.5,0.1,6.1-10.2,7-11.6c2.4-4.2,5-11.9,9.5-11.9c2.2,0,3.1,1.2,3.9,1.3
				c1.6,0.2,34.2,21.5,37.9,23.6c4.4,2.5,10,4.8,13.6,6.9c0.1,0.1,0.6,0.4,0.7,0.4c8,3.6,18.9,10.3,26.9,14.8
				c9.3,5.4,24.7,16.3,33.6,20.2c5,2.2,8.3,4.8,12.7,7.1c1.2,0.6,3.3,3.1,3.3,3.1c-0.6,0.8-11.9,21.4-12,21.8
				C416.7,577.3,415.2,580.6,415.1,580.8z"/>
			<path id="XMLID_94_" class="st1" d="M397.3,537.3c2.4-1,3.6-6.9,4.1-7.5c1.8-2.6-56-37.9-69-40.1c-7-1.2-7.7,6.3-7.1,7.4
				C325.9,498.5,394.3,538.6,397.3,537.3z"/>
			<path id="XMLID_93_" class="st1" d="M333.3,628.1c1,1.5,12.7,8.1,15.1,9.8c4.5,3,26.8,16,30.4,15.7c4-0.4,9.3-13.1,12-16.5
				c3.4-4.3,7.8-12.4,10.8-17.5c3.4-5.9,4.8-9.8,7.4-15.4c1.3-2.7-1.8-5.3-2.6-6.5c-1.1-1.7-45.8-27.6-49.4-26.9
				c-2.3,0.4-21.5,32.5-22,34.9c-0.9,4.5-8.7,14-6.5,18C330.4,627,332.5,627.1,333.3,628.1z"/>
			<path id="XMLID_92_" class="st5" d="M379,641.6c16.2-5.9,19.7-18.9,20.9-27c0.9-6.4-4.6-21.5-10.9-25.2
				c-11.5-6.8-21.6-8.6-29.9-6.1c-16.4,4.8-22.4,22.9-21,33.8C340.5,636.8,362.6,647.6,379,641.6z"/>
			<path id="XMLID_91_" class="st6" d="M372.7,624.1c6.3-2.3,7.7-7.3,8.1-10.5c0.4-2.5-1.8-8.4-4.2-9.8c-4.5-2.6-8.4-3.3-11.7-2.4
				c-6.4,1.9-8.7,8.9-8.2,13.1C357.8,622.2,366.4,626.4,372.7,624.1z"/>
		</g>
		<g id="XMLID_37_">
			<path id="XMLID_90_" class="st2" d="M125.4,980h73.9c3.3-5.4,6.3-10.7,9.3-17.9c2.9-6.8,6.8-13.3,10-21
				c8.7-20.6-4.8-23.2-22.9-30.8c-18.6-7.9-33.1-22.4-53.2-31c-11.8-5-42.9-24.9-59.7-34.5c-10.8-6.2-11.4-3.3-16.8,4.3
				c-6.8,9.5-20.7,33.2-26.3,43.9c-3,5.8-16.1,25.1-8.5,29.1C62.5,938.6,94.1,961.7,125.4,980z"/>
			<path id="XMLID_89_" class="st1" d="M87.2,944.7c4-0.4,9.3-13.1,12-16.5c3.4-4.3,7.8-12.4,10.8-17.5c3.4-5.9,4.8-9.8,7.4-15.4
				c1.3-2.7-1.8-5.3-2.6-6.5c-1.1-1.7-45.8-27.6-49.4-26.9c-2.6,0.5-31.5,47.5-28.5,52.8C40.9,921.7,83.6,945,87.2,944.7z"/>
			<path id="XMLID_88_" class="st5" d="M87.4,932.7c16.2-5.9,19.7-18.9,20.9-27c0.9-6.4-4.6-21.5-10.9-25.2
				c-11.5-6.8-21.6-8.6-29.9-6.1c-16.4,4.8-22.4,22.9-21,33.8C48.9,927.9,71,938.7,87.4,932.7z"/>
			<path id="XMLID_87_" class="st6" d="M81.2,915.2c6.3-2.3,7.7-7.3,8.1-10.5c0.4-2.5-1.8-8.4-4.2-9.8c-4.5-2.7-8.4-3.3-11.7-2.4
				c-6.4,1.9-8.7,8.9-8.2,13.1C66.2,913.3,74.8,917.5,81.2,915.2z"/>
			<path id="XMLID_86_" class="st1" d="M110.5,957.3c4.4,1.9,8.5,5.3,13.2,6.3c1-0.8,4.7-8.3,4.1-9.2c-1.3-1.8-28.7-16.7-29-16.7
				c-0.9,0-3,3.2-3.1,4.5c-0.6,4.1-2.5,4.3,1.1,7.5C99.7,952.2,106.8,955.7,110.5,957.3z"/>
			<path id="XMLID_85_" class="st5" d="M104,949.6c0.9-1,1.7-2.7,2.1-4c0.6-1.9-3-3-4.3-3.6c-1.6-0.4-2.7,3.8-2.8,4.8
				C98.8,947.5,103.6,950,104,949.6z"/>
			<path id="XMLID_84_" class="st5" d="M111.8,954c0.8,0.2,2.3-3.6,2.2-4.7c-0.1-0.7-3.2-2.3-4-2.5c-1.8-0.3-3.1,4.4-2.9,4.9
				C107.6,952.6,110.8,953.8,111.8,954z"/>
			<path id="XMLID_83_" class="st5" d="M122.5,955.6c1.2-1.9-3.8-4.2-4.5-4.4c-2-0.4-3.8,4.7-2.7,5.6c1.4,1.2,1.9,1.3,3.4,2.2
				C121.6,960.7,121.5,957.2,122.5,955.6z"/>
			<path id="XMLID_82_" class="st5" d="M130.1,951.3c0.5,0.3,17.6-23.6,12.5-26.6c-6.7-3.8-21.6-13.7-27.2-16
				c-1.1-0.5-4.8,6.1-5.3,6.9c-4,6.9-4.3,10.3-7.3,16.8c-2.2,4.7,6.8,8.1,10.2,10.1C117.5,945.1,126.4,948.9,130.1,951.3z"/>
			<path id="XMLID_81_" class="st1" d="M144.3,921.9c3.1-0.1,5.8-7.6,4.6-8.2c-4.1-2.2-10.5-6.6-15.1-9.2
				c-2.7-1.6-11.4-7.2-11.7-6.7c-1.5,2.2-6.3,8-2.5,10C122.9,909.5,142.4,921.9,144.3,921.9z"/>
			<path id="XMLID_80_" class="st5" d="M216.1,925.3c4,2.3,3.5,1.7,6.4-3.3c2.7-4.8,6-8.8,8.4-12.9c2.4-4.1,2.1-4.5,3.7-8.2
				c1.2-2.8,0.9-1.6,0.5-3.9c-0.4-2-13.6-9.9-16.1-10.8c-4.4-1.5-7.3-3.7-11.8-6.4c-2.2-1.3-15.5-9-15.9-9
				c-1.3-0.2-29.8-17.1-33.7-19.3c-5.8-3.4-11.8-6.8-17.7-10.2c-13.4-7.7-27.6-15.2-40.6-23.4c-6.5-4.1-10,4.2-13,9.4
				c-3.3,5.8-6,11.3-9.2,16.9c1-0.2,2.7,1.4,3.8,1.5c0.5,0.1,6.1-10.2,7-11.6c2.4-4.2,5-11.9,9.5-11.9c2.2,0,3.1,1.2,3.9,1.3
				c1.6,0.2,34.2,21.5,37.9,23.6c4.4,2.5,10,4.8,13.6,6.9c0.1,0.1,0.6,0.4,0.7,0.4c8,3.6,18.9,10.3,26.9,14.8
				c9.3,5.4,24.7,16.3,33.6,20.2c5,2.2,8.3,4.8,12.7,7.1c1.2,0.6,3.3,3.1,3.3,3.1c-0.6,0.8-11.9,21.4-12,21.8
				C217.7,921.8,216.2,925.1,216.1,925.3z"/>
			<path id="XMLID_79_" class="st1" d="M198.3,881.9c2.4-1,3.6-6.9,4.1-7.5c1.8-2.6-56-37.9-69-40.1c-7-1.2-7.7,6.3-7.1,7.4
				C126.9,843,195.3,883.2,198.3,881.9z"/>
			<path id="XMLID_78_" class="st1" d="M134.3,972.7c0.7,1,6.8,4.7,11.2,7.3H193c3.2-4.5,7-11.4,9.6-15.9c3.4-5.9,4.8-9.8,7.4-15.4
				c1.3-2.7-1.8-5.3-2.6-6.5c-1.1-1.7-45.8-27.6-49.4-26.9c-2.3,0.4-21.5,32.5-22,34.9c-0.9,4.5-8.7,14-6.5,18
				C131.4,971.5,133.5,971.6,134.3,972.7z"/>
			<path id="XMLID_77_" class="st5" d="M149.1,980h41.5c7.3-6.4,9.4-14.9,10.2-20.8c0.9-6.4-4.6-21.5-10.9-25.2
				c-11.5-6.8-21.6-8.6-29.9-6.1c-16.4,4.8-22.4,22.9-21,33.8C140,969.2,143.8,975.5,149.1,980z"/>
			<path id="XMLID_76_" class="st6" d="M173.7,968.6c6.3-2.3,7.7-7.4,8.1-10.5c0.4-2.5-1.8-8.4-4.2-9.8c-4.5-2.6-8.4-3.3-11.7-2.4
				c-6.4,1.9-8.7,8.9-8.2,13.1C158.8,966.7,167.4,970.9,173.7,968.6z"/>
		</g>
		<g id="XMLID_38_">
			<path id="XMLID_75_" class="st2" d="M1233.6,10.2c2.2-3.8,4.2-7.1,6.1-10.2h-73.6c11.2,6.5,22.3,12.4,33.4,17.1
				c5.4,2.3,19.3,10.4,22.4,10.2C1223.9,27.1,1232.1,12.8,1233.6,10.2z"/>
			<path id="XMLID_74_" class="st1" d="M1232.3,1.4c0.3-0.4,0.7-0.9,1.1-1.4h-47.2c1.7,1,3,1.8,3.7,2.3c4.5,3,26.8,16,30.4,15.7
				C1224.3,17.6,1229.6,4.9,1232.3,1.4z"/>
			<path id="XMLID_73_" class="st5" d="M1230.9,0h-41.2c8.5,7.1,20.6,9.7,30.7,6C1224.7,4.5,1228.2,2.4,1230.9,0z"/>
		</g>
		<g id="XMLID_39_">
			<path id="XMLID_72_" class="st2" d="M1000.5,361.6c5.4,2.3,19.3,10.4,22.4,10.2c2.1-0.2,10.3-14.5,11.8-17.1
				c6-10.4,10.6-16.7,15.5-28.3c2.9-6.8,6.8-13.3,10-21c8.7-20.6-4.8-23.2-22.9-30.8c-18.6-7.9-33.1-22.4-53.2-31
				c-11.8-5-42.9-24.9-59.7-34.5c-10.8-6.2-11.4-3.3-16.8,4.3c-6.8,9.5-20.7,33.2-26.3,43.9c-3,5.8-16.1,25.1-8.5,29.1
				C915.2,308.9,958.2,343.7,1000.5,361.6z"/>
			<path id="XMLID_71_" class="st1" d="M928.6,309.1c4-0.4,9.3-13.1,12-16.5c3.4-4.3,7.8-12.4,10.8-17.5c3.4-5.9,4.8-9.8,7.4-15.4
				c1.3-2.7-1.8-5.3-2.6-6.5c-1.1-1.7-45.8-27.6-49.4-26.9c-2.6,0.5-31.5,47.5-28.5,52.8C882.3,286.1,925,309.4,928.6,309.1z"/>
			<path id="XMLID_70_" class="st5" d="M928.8,297.1c16.2-5.9,19.7-18.9,20.9-27c0.9-6.4-4.6-21.5-10.9-25.2
				c-11.5-6.8-21.6-8.6-29.9-6.1c-16.4,4.8-22.4,22.9-21,33.8C890.3,292.3,912.4,303.1,928.8,297.1z"/>
			<path id="XMLID_69_" class="st6" d="M922.6,279.6c6.3-2.3,7.7-7.3,8.1-10.5c0.4-2.5-1.8-8.4-4.2-9.8c-4.5-2.6-8.4-3.3-11.7-2.4
				c-6.4,1.9-8.7,8.9-8.2,13.1C907.6,277.7,916.2,281.9,922.6,279.6z"/>
			<path id="XMLID_68_" class="st1" d="M951.9,321.7c4.4,1.9,8.5,5.3,13.2,6.3c1-0.8,4.7-8.3,4.1-9.2c-1.3-1.8-28.7-16.7-29-16.7
				c-0.9,0-3,3.2-3.1,4.5c-0.6,4.1-2.5,4.3,1.1,7.5C941.1,316.6,948.2,320.1,951.9,321.7z"/>
			<path id="XMLID_67_" class="st5" d="M945.4,314c0.9-1,1.7-2.7,2.1-4c0.6-1.9-3-3-4.3-3.6c-1.6-0.4-2.7,3.8-2.8,4.8
				C940.2,311.9,945.1,314.4,945.4,314z"/>
			<path id="XMLID_66_" class="st5" d="M953.2,318.4c0.8,0.2,2.3-3.6,2.2-4.7c-0.1-0.7-3.2-2.3-4-2.5c-1.8-0.3-3.1,4.4-2.9,4.9
				C949,317,952.3,318.2,953.2,318.4z"/>
			<path id="XMLID_65_" class="st5" d="M964,320c1.2-1.9-3.8-4.2-4.5-4.4c-2-0.4-3.8,4.7-2.7,5.6c1.4,1.2,1.9,1.3,3.4,2.2
				C963,325.1,963,321.6,964,320z"/>
			<path id="XMLID_64_" class="st5" d="M971.6,315.7c0.5,0.3,17.6-23.6,12.5-26.6c-6.7-3.9-21.6-13.7-27.2-16
				c-1.1-0.5-4.8,6.1-5.3,6.9c-4,6.9-4.3,10.3-7.3,16.8c-2.2,4.7,6.8,8.1,10.2,10.1C959,309.5,967.8,313.3,971.6,315.7z"/>
			<path id="XMLID_63_" class="st1" d="M985.8,286.3c3.1-0.1,5.8-7.6,4.7-8.2c-4.1-2.2-10.5-6.6-15.1-9.2
				c-2.7-1.6-11.4-7.2-11.7-6.7c-1.5,2.2-6.3,8-2.5,10C964.4,273.9,983.8,286.3,985.8,286.3z"/>
			<path id="XMLID_62_" class="st5" d="M1057.5,289.7c4,2.3,3.5,1.7,6.4-3.3c2.7-4.8,6-8.8,8.4-12.9c2.4-4.1,2.1-4.5,3.7-8.2
				c1.2-2.8,0.9-1.6,0.5-3.9c-0.4-2-13.6-9.9-16.1-10.8c-4.4-1.5-7.3-3.7-11.8-6.4c-2.2-1.3-15.5-9-15.9-9
				c-1.3-0.2-29.8-17.1-33.7-19.3c-5.8-3.4-11.8-6.8-17.7-10.2c-13.4-7.7-27.6-15.2-40.6-23.4c-6.5-4.1-10,4.2-13,9.4
				c-3.3,5.8-6,11.3-9.2,16.9c1-0.2,2.7,1.4,3.8,1.5c0.5,0.1,6.1-10.2,7-11.6c2.4-4.2,5-11.9,9.5-11.9c2.2,0,3.1,1.2,3.9,1.3
				c1.6,0.2,34.2,21.5,37.9,23.6c4.4,2.5,10,4.8,13.6,6.9c0.1,0.1,0.6,0.4,0.7,0.4c8,3.6,18.9,10.3,26.9,14.8
				c9.3,5.4,24.7,16.3,33.6,20.2c5,2.2,8.3,4.8,12.7,7.1c1.2,0.6,3.3,3.1,3.3,3.1c-0.6,0.8-11.9,21.4-12,21.8
				C1059.1,286.2,1057.6,289.5,1057.5,289.7z"/>
			<path id="XMLID_61_" class="st1" d="M1039.7,246.3c2.4-1,3.6-6.9,4.1-7.5c1.8-2.6-56-37.9-69-40.1c-7-1.2-7.7,6.3-7.1,7.4
				C968.4,207.4,1036.7,247.6,1039.7,246.3z"/>
			<path id="XMLID_60_" class="st1" d="M975.7,337.1c1,1.5,12.7,8.1,15.1,9.8c4.5,3,26.8,16,30.4,15.7c4-0.4,9.3-13.1,12-16.5
				c3.4-4.3,7.8-12.4,10.8-17.5c3.4-5.9,4.8-9.8,7.4-15.4c1.3-2.7-1.8-5.3-2.6-6.5c-1.1-1.7-45.8-27.6-49.4-26.9
				c-2.3,0.4-21.5,32.5-22,34.9c-0.9,4.5-8.7,14-6.5,18C972.9,335.9,975,336,975.7,337.1z"/>
			<path id="XMLID_59_" class="st5" d="M1021.4,350.6c16.2-5.9,19.7-18.9,20.9-27c0.9-6.4-4.6-21.5-10.9-25.2
				c-11.5-6.8-21.6-8.6-29.9-6.1c-16.4,4.8-22.4,22.9-21,33.8C982.9,345.8,1005,356.6,1021.4,350.6z"/>
			<path id="XMLID_58_" class="st6" d="M1015.2,333c6.3-2.3,7.7-7.3,8.1-10.5c0.4-2.5-1.8-8.4-4.2-9.8c-4.5-2.6-8.4-3.3-11.7-2.4
				c-6.4,1.9-8.7,8.9-8.2,13.1C1000.2,331.1,1008.8,335.3,1015.2,333z"/>
		</g>
		<g id="XMLID_40_">
			<path id="XMLID_57_" class="st2" d="M801.5,706.2c5.4,2.3,19.3,10.4,22.4,10.2c2.1-0.2,10.3-14.5,11.8-17.1
				c6-10.4,10.6-16.7,15.5-28.3c2.9-6.8,6.8-13.3,10-21c8.7-20.6-4.8-23.2-22.9-30.8c-18.6-7.9-33.1-22.4-53.2-31
				c-11.8-5-42.9-24.9-59.7-34.5c-10.8-6.2-11.4-3.3-16.8,4.3c-6.8,9.5-20.7,33.2-26.3,43.9c-3,5.8-16.1,25.1-8.5,29.1
				C716.2,653.4,759.2,688.2,801.5,706.2z"/>
			<path id="XMLID_56_" class="st1" d="M729.6,653.6c4-0.4,9.3-13.1,12-16.5c3.4-4.3,7.8-12.4,10.8-17.5c3.4-5.9,4.8-9.8,7.4-15.4
				c1.3-2.7-1.8-5.3-2.6-6.5c-1.1-1.7-45.8-27.6-49.4-26.9c-2.6,0.5-31.5,47.5-28.5,52.8C683.3,630.7,726.1,653.9,729.6,653.6z"/>
			<path id="XMLID_55_" class="st5" d="M729.8,641.7c16.2-5.9,19.7-18.9,20.9-27c0.9-6.4-4.6-21.5-10.9-25.2
				c-11.5-6.8-21.6-8.6-29.9-6.1c-16.4,4.8-22.4,22.9-21,33.8C691.3,636.9,713.4,647.7,729.8,641.7z"/>
			<path id="XMLID_54_" class="st6" d="M723.6,624.1c6.3-2.3,7.7-7.3,8.1-10.5c0.4-2.5-1.8-8.4-4.2-9.8c-4.5-2.6-8.4-3.3-11.7-2.4
				c-6.4,1.9-8.7,8.9-8.2,13.1C708.6,622.2,717.2,626.4,723.6,624.1z"/>
			<path id="XMLID_53_" class="st1" d="M752.9,666.2c4.4,1.9,8.5,5.3,13.2,6.3c1-0.8,4.7-8.3,4.1-9.2c-1.3-1.8-28.7-16.7-29-16.7
				c-0.9,0-3,3.2-3.1,4.5c-0.6,4.1-2.5,4.3,1.1,7.5C742.1,661.1,749.2,664.6,752.9,666.2z"/>
			<path id="XMLID_52_" class="st5" d="M746.4,658.6c0.9-1,1.7-2.7,2.1-4c0.6-1.9-3-3-4.3-3.6c-1.6-0.4-2.7,3.8-2.8,4.8
				C741.2,656.4,746.1,658.9,746.4,658.6z"/>
			<path id="XMLID_51_" class="st5" d="M754.2,662.9c0.8,0.2,2.3-3.6,2.2-4.7c-0.1-0.7-3.2-2.3-4-2.5c-1.8-0.3-3.1,4.4-2.9,4.9
				C750.1,661.5,753.3,662.7,754.2,662.9z"/>
			<path id="XMLID_50_" class="st5" d="M765,664.5c1.2-1.9-3.8-4.2-4.5-4.4c-2-0.4-3.8,4.7-2.7,5.6c1.4,1.2,1.9,1.3,3.4,2.2
				C764,669.7,764,666.1,765,664.5z"/>
			<path id="XMLID_49_" class="st5" d="M772.6,660.2c0.5,0.3,17.6-23.6,12.5-26.6c-6.7-3.9-21.6-13.7-27.2-16
				c-1.1-0.5-4.8,6.1-5.3,6.9c-4,6.9-4.3,10.3-7.3,16.8c-2.2,4.7,6.8,8.1,10.2,10.1C760,654,768.8,657.8,772.6,660.2z"/>
			<path id="XMLID_48_" class="st1" d="M786.8,630.8c3.1-0.1,5.8-7.6,4.6-8.2c-4.1-2.2-10.5-6.6-15.1-9.2
				c-2.7-1.6-11.4-7.2-11.7-6.7c-1.5,2.2-6.3,8-2.5,10C765.4,618.4,784.8,630.9,786.8,630.8z"/>
			<path id="XMLID_47_" class="st5" d="M858.5,634.3c4,2.3,3.5,1.7,6.4-3.3c2.8-4.8,6-8.8,8.4-12.9c2.4-4.1,2.1-4.5,3.7-8.2
				c1.2-2.8,0.9-1.6,0.5-3.9c-0.4-2-13.6-9.9-16.1-10.8c-4.4-1.5-7.3-3.7-11.8-6.4c-2.2-1.3-15.5-9-15.9-9
				c-1.3-0.2-29.8-17.1-33.7-19.3c-5.8-3.4-11.8-6.8-17.7-10.2c-13.4-7.7-27.6-15.2-40.6-23.4c-6.5-4.1-10,4.2-13,9.4
				c-3.3,5.8-6,11.3-9.2,16.9c1-0.2,2.7,1.4,3.8,1.5c0.5,0.1,6.1-10.2,7-11.6c2.4-4.2,5-11.9,9.5-11.9c2.2,0,3.1,1.2,3.9,1.3
				c1.6,0.2,34.2,21.5,37.9,23.6c4.4,2.5,10,4.8,13.6,6.9c0.1,0.1,0.6,0.4,0.7,0.4c8,3.6,18.9,10.3,26.9,14.8
				c9.3,5.4,24.7,16.3,33.6,20.2c5,2.2,8.3,4.8,12.7,7.1c1.2,0.7,3.3,3.1,3.3,3.1c-0.6,0.8-11.9,21.4-12,21.8
				C860.1,630.8,858.7,634.1,858.5,634.3z"/>
			<path id="XMLID_46_" class="st1" d="M840.7,590.8c2.4-1,3.6-6.9,4.1-7.5c1.8-2.6-56-37.9-69-40.1c-7-1.2-7.7,6.3-7.1,7.4
				C769.4,551.9,837.7,592.1,840.7,590.8z"/>
			<path id="XMLID_45_" class="st1" d="M776.7,681.6c1,1.5,12.7,8.1,15.1,9.8c4.5,3.1,26.8,16,30.4,15.7c4-0.4,9.3-13.1,12-16.5
				c3.4-4.3,7.8-12.4,10.8-17.5c3.4-5.9,4.8-9.8,7.4-15.4c1.3-2.7-1.8-5.3-2.6-6.5c-1.1-1.7-45.8-27.6-49.4-26.9
				c-2.3,0.4-21.5,32.5-22,34.9c-0.9,4.5-8.7,14-6.5,18C773.9,680.5,776,680.6,776.7,681.6z"/>
			<path id="XMLID_44_" class="st5" d="M822.4,695.1c16.2-5.9,19.7-18.9,20.9-27c0.9-6.4-4.6-21.5-10.9-25.2
				c-11.5-6.8-21.6-8.6-29.9-6.1c-16.4,4.8-22.4,22.9-21,33.8C783.9,690.3,806,701.1,822.4,695.1z"/>
			<path id="XMLID_43_" class="st6" d="M816.2,677.6c6.3-2.3,7.7-7.3,8.1-10.5c0.3-2.5-1.8-8.4-4.2-9.8c-4.5-2.7-8.4-3.3-11.7-2.4
				c-6.4,1.9-8.7,8.9-8.2,13.1C801.2,675.7,809.8,679.9,816.2,677.6z"/>
		</g>
		<g id="XMLID_41_">
			<path id="XMLID_42_" class="st2" d="M482.8,980h181.6c-2.3-8.1-12.6-10.9-25.1-16.2c-18.6-7.9-33.1-22.4-53.2-31
				c-11.8-5-42.9-24.9-59.7-34.5c-10.8-6.2-11.4-3.3-16.8,4.3c-6.8,9.5-20.7,33.2-26.3,43.9c-3,5.8-16.1,25.1-8.5,29.1
				C477.4,977,480.1,978.5,482.8,980z"/>
			<path id="XMLID_241_" class="st1" d="M495.7,980h48.2c3.2-4.5,7-11.4,9.6-15.9c3.4-5.9,4.8-9.8,7.4-15.4c1.3-2.7-1.8-5.3-2.6-6.5
				c-1.1-1.7-45.8-27.6-49.4-26.9c-2.6,0.5-31.5,47.5-28.5,52.8C481.8,970.7,488.1,975.2,495.7,980z"/>
			<path id="XMLID_242_" class="st5" d="M500,980h41.6c7.3-6.4,9.3-14.9,10.2-20.8c0.9-6.4-4.6-21.5-10.9-25.2
				c-11.5-6.8-21.6-8.6-29.9-6.1c-16.4,4.8-22.4,22.9-21,33.8C490.8,969.2,494.7,975.5,500,980z"/>
			<path id="XMLID_276_" class="st6" d="M524.6,968.6c6.3-2.3,7.7-7.3,8.1-10.5c0.4-2.5-1.8-8.4-4.2-9.8c-4.5-2.6-8.4-3.3-11.7-2.4
				c-6.4,1.9-8.7,8.9-8.2,13.1C509.6,966.8,518.2,971,524.6,968.6z"/>
			<path id="XMLID_311_" class="st5" d="M586.1,978.2c-6.7-3.9-21.6-13.7-27.2-16c-1.1-0.5-4.8,6.1-5.3,6.9c-2.6,4.5-3.6,7.6-4.9,11
				H587C587,979.2,586.7,978.5,586.1,978.2z"/>
			<path id="XMLID_319_" class="st1" d="M587.8,975.4c3.1-0.1,5.8-7.6,4.6-8.3c-4.1-2.2-10.5-6.6-15.1-9.2
				c-2.7-1.6-11.4-7.2-11.7-6.7c-1.5,2.2-6.3,8-2.5,10C566.4,963,585.8,975.4,587.8,975.4z"/>
			<path id="XMLID_320_" class="st5" d="M659.5,978.8c1,0.6,1.8,1,2.3,1.2h1.2c0.8-0.4,1.3-1.8,2.9-4.5c2.7-4.8,6-8.8,8.4-12.9
				c2.4-4.1,2.1-4.5,3.7-8.2c1.2-2.8,0.9-1.6,0.5-3.9c-0.4-2-13.6-9.9-16.1-10.8c-4.4-1.5-7.3-3.7-11.8-6.4c-2.2-1.3-15.5-9-15.9-9
				c-1.3-0.2-29.8-17.1-33.7-19.3c-5.8-3.4-11.8-6.8-17.7-10.2c-13.4-7.7-27.6-15.2-40.6-23.4c-6.5-4.1-10,4.2-13,9.4
				c-3.3,5.8-6,11.3-9.2,16.9c1-0.2,2.7,1.4,3.8,1.5c0.5,0.1,6.1-10.2,7-11.6c2.4-4.2,5-11.9,9.5-11.9c2.2,0,3.1,1.2,3.9,1.3
				c1.6,0.2,34.2,21.5,37.9,23.6c4.4,2.5,10,4.8,13.6,6.9c0.1,0.1,0.6,0.4,0.7,0.4c8,3.6,18.9,10.3,26.9,14.8
				c9.3,5.4,24.7,16.3,33.6,20.2c5,2.2,8.3,4.8,12.7,7.1c1.2,0.7,3.3,3.1,3.3,3.1c-0.6,0.8-11.9,21.4-12,21.8
				C661.1,975.3,659.7,978.6,659.5,978.8z"/>
			<path id="XMLID_321_" class="st1" d="M641.7,935.4c2.4-1,3.6-6.9,4.1-7.5c1.8-2.6-56-37.9-69-40.1c-7-1.2-7.7,6.3-7.1,7.4
				C570.4,896.5,638.7,936.7,641.7,935.4z"/>
			<path id="XMLID_322_" class="st1" d="M593.2,980h31.5c-11-6.1-21.6-11.6-23.3-11.2C600.6,968.9,597.1,973.9,593.2,980z"/>
		</g>
		<g id="XMLID_323_">
			<path id="XMLID_324_" class="st3" d="M1400,391.7V282c-11.5-6.9-23.7-14.4-32.2-19.2c-10.8-6.2-11.4-3.3-16.8,4.3
				c-6.8,9.5-20.7,33.2-26.3,43.9c-3,5.8-16.1,25.1-8.5,29.1C1344,354.6,1372.1,374.6,1400,391.7z"/>
			<path id="XMLID_325_" class="st1" d="M1372.1,362.6c4-0.4,9.3-13.1,12-16.5c3.4-4.3,7.8-12.4,10.8-17.5c2.3-3.9,3.7-7,5.1-10.2
				V307c-0.1-0.1-0.2-0.3-0.3-0.4c-1.1-1.7-45.8-27.6-49.4-26.9c-2.6,0.5-31.5,47.5-28.5,52.8
				C1325.8,339.6,1368.5,362.9,1372.1,362.6z"/>
			<path id="XMLID_326_" class="st5" d="M1372.2,350.6c16.2-5.9,19.7-18.9,20.9-27c0.9-6.4-4.6-21.5-10.9-25.2
				c-11.5-6.8-21.6-8.6-29.9-6.1c-16.4,4.8-22.4,22.9-21,33.8C1333.8,345.8,1355.8,356.6,1372.2,350.6z"/>
			<path id="XMLID_327_" class="st6" d="M1366,333.1c6.3-2.3,7.7-7.4,8.1-10.5c0.4-2.5-1.8-8.4-4.2-9.8c-4.5-2.7-8.4-3.3-11.7-2.4
				c-6.4,1.9-8.7,8.9-8.2,13.1C1351,331.2,1359.6,335.4,1366,333.1z"/>
			<path id="XMLID_328_" class="st1" d="M1395.3,375.1c1.6,0.7,3.1,1.6,4.7,2.4v-13.2c-7.7-4.4-16.2-8.9-16.3-8.9
				c-0.9,0-3,3.2-3.1,4.5c-0.6,4.1-2.5,4.3,1.1,7.5C1384.6,370,1391.7,373.6,1395.3,375.1z"/>
			<path id="XMLID_329_" class="st5" d="M1388.8,367.5c0.9-1,1.7-2.7,2.1-4c0.6-1.9-3-3-4.3-3.6c-1.6-0.4-2.7,3.8-2.8,4.8
				C1383.7,365.4,1388.5,367.9,1388.8,367.5z"/>
			<path id="XMLID_330_" class="st5" d="M1396.7,371.9c0.8,0.2,2.3-3.6,2.2-4.7c-0.1-0.7-3.2-2.3-4-2.5c-1.8-0.3-3.1,4.4-2.9,4.9
				C1392.5,370.4,1395.7,371.7,1396.7,371.9z"/>
			<path id="XMLID_331_" class="st5" d="M1400,374.5v-2.1C1399.8,373.3,1399.8,374.1,1400,374.5z"/>
			<path id="XMLID_332_" class="st5" d="M1400,361.5v-35c-1.4,0.4-4.6,6.2-5,6.9c-4,6.9-4.3,10.3-7.3,16.8
				c-2.2,4.7,6.8,8.1,10.2,10.1C1398.5,360.7,1399.2,361.1,1400,361.5z"/>
			<path id="XMLID_333_" class="st5" d="M1372.7,251.9c2.4-4.2,5-11.9,9.5-11.9c2.2,0,3.1,1.2,3.9,1.3c0.7,0.1,6.8,3.9,13.9,8.4
				v-4.5c-5.4-3.1-10.7-6.2-15.9-9.5c-6.5-4.1-10,4.2-13,9.4c-3.3,5.8-6,11.3-9.2,16.9c1-0.2,2.7,1.4,3.8,1.5
				C1366.3,263.6,1371.9,253.4,1372.7,251.9z"/>
		</g>
		<g id="XMLID_334_">
			<path id="XMLID_335_" class="st2" d="M1244.9,759.6c5.4,2.3,19.3,10.4,22.4,10.2c2.1-0.2,10.3-14.5,11.7-17.1
				c6-10.4,10.6-16.7,15.5-28.3c2.9-6.8,6.8-13.3,10-21c8.7-20.6-4.8-23.2-22.9-30.8c-18.6-7.9-33.1-22.4-53.2-31
				c-11.8-5-42.9-24.9-59.7-34.5c-10.8-6.2-11.4-3.3-16.8,4.3c-6.8,9.5-20.7,33.2-26.3,43.9c-3,5.8-16.1,25.1-8.5,29.1
				C1159.6,706.9,1202.7,741.7,1244.9,759.6z"/>
			<path id="XMLID_336_" class="st1" d="M1173.1,707.1c4-0.4,9.3-13.1,12-16.5c3.4-4.3,7.8-12.4,10.8-17.5c3.4-5.9,4.8-9.8,7.4-15.4
				c1.3-2.7-1.8-5.3-2.6-6.5c-1.1-1.7-45.8-27.6-49.4-26.9c-2.6,0.5-31.5,47.5-28.5,52.8C1126.8,684.2,1169.5,707.4,1173.1,707.1z"
				/>
			<path id="XMLID_337_" class="st5" d="M1173.3,695.2c16.2-5.9,19.7-18.9,20.9-27c0.9-6.4-4.6-21.5-10.9-25.2
				c-11.5-6.8-21.6-8.6-29.9-6.1c-16.4,4.8-22.4,22.9-21,33.8C1134.8,690.4,1156.9,701.1,1173.3,695.2z"/>
			<path id="XMLID_338_" class="st6" d="M1167,677.6c6.3-2.3,7.7-7.3,8.1-10.5c0.4-2.5-1.8-8.4-4.2-9.8c-4.5-2.6-8.4-3.3-11.7-2.4
				c-6.4,1.9-8.7,8.9-8.2,13.1C1152.1,675.7,1160.6,679.9,1167,677.6z"/>
			<path id="XMLID_339_" class="st1" d="M1196.3,719.7c4.4,1.9,8.5,5.3,13.2,6.3c1-0.8,4.7-8.3,4.1-9.2c-1.3-1.8-28.7-16.7-29-16.7
				c-0.9,0-3,3.2-3.1,4.5c-0.6,4.1-2.5,4.3,1.1,7.5C1185.6,714.6,1192.7,718.1,1196.3,719.7z"/>
			<path id="XMLID_340_" class="st5" d="M1189.8,712.1c0.9-1,1.7-2.7,2.1-4c0.6-1.8-3-3-4.3-3.6c-1.6-0.4-2.7,3.8-2.8,4.8
				C1184.7,709.9,1189.5,712.4,1189.8,712.1z"/>
			<path id="XMLID_341_" class="st5" d="M1197.7,716.4c0.8,0.2,2.3-3.6,2.2-4.7c-0.1-0.7-3.2-2.3-4-2.5c-1.8-0.3-3.1,4.4-2.9,4.9
				C1193.5,715,1196.7,716.2,1197.7,716.4z"/>
			<path id="XMLID_342_" class="st5" d="M1208.4,718c1.2-1.9-3.8-4.2-4.5-4.4c-2-0.4-3.8,4.7-2.7,5.6c1.4,1.2,1.9,1.3,3.4,2.2
				C1207.5,723.2,1207.4,719.6,1208.4,718z"/>
			<path id="XMLID_343_" class="st5" d="M1216,713.7c0.5,0.3,17.6-23.6,12.5-26.6c-6.7-3.8-21.6-13.7-27.2-16
				c-1.1-0.5-4.8,6.1-5.3,6.9c-4,6.9-4.3,10.3-7.3,16.8c-2.2,4.7,6.8,8.1,10.2,10.1C1203.4,707.5,1212.3,711.3,1216,713.7z"/>
			<path id="XMLID_344_" class="st1" d="M1230.2,684.3c3.1-0.1,5.8-7.6,4.7-8.2c-4.1-2.2-10.5-6.6-15.1-9.2
				c-2.7-1.6-11.4-7.2-11.7-6.7c-1.5,2.2-6.3,8-2.5,10C1208.8,671.9,1228.3,684.4,1230.2,684.3z"/>
			<path id="XMLID_345_" class="st5" d="M1302,687.8c4,2.3,3.5,1.7,6.4-3.3c2.8-4.8,6-8.8,8.4-12.9c2.4-4.1,2.1-4.5,3.7-8.2
				c1.2-2.8,0.9-1.6,0.5-3.9c-0.4-2-13.6-9.9-16.1-10.8c-4.4-1.5-7.3-3.7-11.8-6.4c-2.2-1.3-15.5-9-15.9-9
				c-1.3-0.2-29.7-17.1-33.7-19.3c-5.8-3.4-11.8-6.8-17.7-10.2c-13.4-7.7-27.6-15.2-40.6-23.4c-6.5-4.1-10,4.2-13,9.4
				c-3.3,5.8-6,11.3-9.2,16.9c1-0.2,2.7,1.4,3.8,1.5c0.5,0.1,6.1-10.2,7-11.6c2.4-4.2,5-11.9,9.5-11.9c2.2,0,3.1,1.2,3.9,1.3
				c1.6,0.2,34.2,21.5,37.9,23.6c4.4,2.5,10,4.8,13.6,6.9c0.1,0.1,0.6,0.4,0.7,0.4c8,3.6,18.9,10.3,26.9,14.8
				c9.3,5.4,24.7,16.3,33.6,20.2c5,2.2,8.3,4.8,12.7,7.1c1.2,0.7,3.3,3.1,3.3,3.1c-0.6,0.8-11.9,21.4-12,21.8
				C1303.6,684.3,1302.1,687.6,1302,687.8z"/>
			<path id="XMLID_346_" class="st1" d="M1284.2,644.3c2.4-1,3.6-6.9,4.1-7.5c1.8-2.6-56-37.9-69-40.1c-7-1.2-7.7,6.3-7.1,7.4
				C1212.8,605.4,1281.2,645.6,1284.2,644.3z"/>
			<path id="XMLID_347_" class="st1" d="M1220.2,735.1c1,1.5,12.7,8.1,15.1,9.8c4.5,3.1,26.8,16,30.4,15.7c4-0.4,9.3-13.1,12-16.5
				c3.4-4.3,7.8-12.4,10.8-17.5c3.4-5.9,4.8-9.8,7.4-15.4c1.3-2.7-1.8-5.3-2.6-6.5c-1.1-1.7-45.8-27.6-49.4-26.9
				c-2.3,0.4-21.5,32.5-22,34.9c-0.9,4.5-8.7,14-6.5,18C1217.3,733.9,1219.4,734.1,1220.2,735.1z"/>
			<path id="XMLID_348_" class="st5" d="M1265.8,748.6c16.2-5.9,19.7-18.9,20.9-27c0.9-6.4-4.6-21.5-10.9-25.2
				c-11.5-6.8-21.6-8.6-29.9-6.1c-16.4,4.8-22.4,22.9-21,33.8C1227.4,743.8,1249.5,754.6,1265.8,748.6z"/>
			<path id="XMLID_349_" class="st6" d="M1259.6,731.1c6.3-2.3,7.7-7.4,8.1-10.5c0.4-2.5-1.8-8.4-4.2-9.8c-4.5-2.6-8.4-3.3-11.7-2.4
				c-6.4,1.9-8.7,8.9-8.2,13.1C1244.6,729.2,1253.2,733.4,1259.6,731.1z"/>
		</g>
		<g id="XMLID_350_">
			<path id="XMLID_351_" class="st2" d="M953,956.2c-3.7,5.2-9.6,14.6-15,23.8h79.3c-14.5-8.2-35-21-47.5-28.2
				C959,945.7,958.4,948.6,953,956.2z"/>
			<path id="XMLID_352_" class="st1" d="M944.1,980h31.4c-11-6.1-21.5-11.5-23.2-11.2C951.5,968.9,948.2,973.6,944.1,980z"/>
			<path id="XMLID_353_" class="st5" d="M974.7,941c2.4-4.2,5-11.9,9.5-11.9c2.2,0,3.1,1.2,3.9,1.3c1.6,0.2,34.2,21.5,37.9,23.6
				c4.4,2.5,10,4.8,13.6,6.9c0.1,0.1,0.6,0.4,0.7,0.4c8,3.6,18.9,10.3,26.9,14.8c1.9,1.1,4,2.4,6.3,3.8h8.7c-2.2-1.2-3.8-2.1-4-2.2
				c-1.3-0.2-29.7-17.1-33.7-19.3c-5.8-3.4-11.8-6.8-17.7-10.2c-13.4-7.7-27.6-15.2-40.6-23.4c-6.5-4.1-10,4.2-13,9.4
				c-3.3,5.8-6,11.3-9.2,16.9c1-0.2,2.7,1.4,3.8,1.5C968.3,952.7,973.9,942.5,974.7,941z"/>
			<path id="XMLID_354_" class="st1" d="M1066.6,980h21.9c-6.9-7-56.3-36.8-68.2-38.8c-7-1.2-7.7,6.3-7.1,7.4
				C1013.6,949.6,1045.4,968.4,1066.6,980z"/>
		</g>
	</g>
</g>
</svg>
